<svg xmlns="http://www.w3.org/2000/svg" viewBox="0 0 151.01 222.33"><defs><style>.cls-1,.cls-3,.cls-4{fill:#3e1484;}.cls-1{stroke:#000;}.cls-1,.cls-2,.cls-4{stroke-miterlimit:10;}.cls-2{fill:none;}.cls-2,.cls-4{stroke:#ffd1dc;}</style></defs><g id="Layer_2" data-name="Layer 2"><g id="Layer_1-2" data-name="Layer 1"><path class="cls-1" d="M2.77,221.78l72.74-43,72.73,43a3.16,3.16,0,0,0,2.27-2.86V.5H.5V218.92A3.16,3.16,0,0,0,2.77,221.78Z"/><circle class="cls-2" cx="49.94" cy="110.62" r="30.27"/><rect class="cls-3" x="65.65" y="116.42" width="28.31" height="25.51"/><line class="cls-2" x1="48.82" y1="109.06" x2="40.13" y2="98.37"/><line class="cls-2" x1="50.78" y1="111.4" x2="76.81" y2="106.12"/><circle class="cls-4" cx="50.14" cy="110.79" r="2.17"/><line class="cls-2" x1="39.93" y1="103.49" x2="40.13" y2="98.37"/><line class="cls-2" x1="39.99" y1="98.57" x2="44.99" y2="99.69"/><line class="cls-2" x1="72.38" y1="103.39" x2="76.7" y2="106.16"/><line class="cls-2" x1="76.81" y1="106.12" x2="73.34" y2="109.89"/><path class="cls-2" d="M65.23,136.75c2.58-1.93,16.78-12.12,32.84-5.41"/><path class="cls-2" d="M97.89,131.28c3,1.17,19.42,7.17,33.08-3.6"/><path class="cls-2" d="M76.51,126.17c1.63-1.17,10.62-7.36,21.16-3.13"/><path class="cls-2" d="M97.55,123c2,.73,12.73,4.53,21.36-2"/><path class="cls-2" d="M117.15,122.18c2.09-1.2,6.73-4.75,3.91-7-1.17-.94-3.54-1-3.78.67s2.86,2.14,3,.36"/><path class="cls-2" d="M73.63,129.52c2.08-1,13.5-6.53,25.18-2.09"/><path class="cls-2" d="M98.68,127.39c2.19.78,14.19,4.82,25.24-1"/><path class="cls-2" d="M121.87,127.35c6.91-2.93,10.28-7.69,9.31-10.55-.56-1.67-2.65-3.59-4.49-3.15a3.13,3.13,0,0,0-2.31,3.45,2.57,2.57,0,0,0,2.61,2c1.24-.15,2.35-1.44,2-2.53s-1.6-1.29-1.66-1.3"/><path class="cls-2" d="M107.82,124.74c2.55,0,8.85-.81,8.12-4.67-.31-1.61-2.19-3.08-3.58-1.53s.85,3.78,2.25,2.12"/></g></g></svg>