<svg xmlns="http://www.w3.org/2000/svg" viewBox="0 0 151.01 222.33"><defs><style>.cls-1,.cls-2{fill:#c4242b;}.cls-1{stroke:#000;stroke-miterlimit:10;}.cls-3{fill:#fff;}</style></defs><g id="Layer_2" data-name="Layer 2"><g id="Layer_1-2" data-name="Layer 1"><path class="cls-1" d="M2.77,221.78l72.74-43,72.73,43a3.16,3.16,0,0,0,2.27-2.86V.5H.5V218.92A3.16,3.16,0,0,0,2.77,221.78Z"/><circle cx="75.51" cy="96.15" r="46.92"/><path class="cls-2" d="M86.44,92.45l-1.39-2.33-2.47,1.17L81.2,89l-2.47,1.16L77.35,87.8,74.88,89,73.5,86.63,71,87.79l-1.38-2.32-2.47,1.16-5.24,16.83,6.36,1.92a3.37,3.37,0,0,1,6.59,1v.07a2.5,2.5,0,0,1-.11.9l6.47,2,5.21-16.84"/><path class="cls-3" d="M67.38,102.07a.66.66,0,0,1-.56-.67V93.16a.68.68,0,0,1,.68-.69h6a3.57,3.57,0,0,1,.46,0,2.69,2.69,0,0,1,2.24,2.63v6.26a.67.67,0,0,1-.21.48.69.69,0,0,1-.61.19.68.68,0,0,1-.57-.67V95.14a1.31,1.31,0,0,0-1.31-1.3H72.22v7.56a.68.68,0,0,1-.69.68H71.4a.66.66,0,0,1-.56-.67V93.84H68.2v7.56a.62.62,0,0,1-.2.48.7.7,0,0,1-.62.19m10,3.59a.68.68,0,0,1-.57-.68.7.7,0,0,1,.2-.48.72.72,0,0,1,.5-.2,1.31,1.31,0,0,0,1.26-.93L79.5,101l-2.34-7.74a.69.69,0,0,1,.46-.86h0a.71.71,0,0,1,.86.45l1.74,5.77L82,92.87a.7.7,0,0,1,.8-.47l0,0a.69.69,0,0,1,.47.86l-2.41,7.94-.76,2.54a2.82,2.82,0,0,1-1,1.38,2.73,2.73,0,0,1-1.62.53H77.4m-42.46-5.09h1.37a1.37,1.37,0,0,0,1.37-1.35v-4a1.35,1.35,0,0,0-1.13-1.33,1,1,0,0,0-.24,0H34.94v6.66ZM34.09,102a.68.68,0,0,1-.59-.7V89a.71.71,0,0,1,.21-.51.72.72,0,0,1,.63-.19.71.71,0,0,1,.6.7v3.5h1.37a2.78,2.78,0,0,1,2.81,2.76v4A2.79,2.79,0,0,1,36.31,102H34.22a.29.29,0,0,1-.13,0ZM44,93.84l-.24,0a1.35,1.35,0,0,0-1.37,1.35V99.3a1.35,1.35,0,0,0,1.35,1.35h0a1.36,1.36,0,0,0,1.37-1.35V95.17A1.37,1.37,0,0,0,44,93.84m-.73,8.2A2.79,2.79,0,0,1,41,99.3V95.17a2.73,2.73,0,0,1,.82-2,2.81,2.81,0,0,1,2-.81,2.78,2.78,0,0,1,2.81,2.76h0V99.3a2.74,2.74,0,0,1-.83,2,2.83,2.83,0,0,1-2,.81,2.63,2.63,0,0,1-.49,0m8.19-8.2-.23,0a1.35,1.35,0,0,0-1.37,1.35V99.3a1.35,1.35,0,0,0,1.35,1.35h0a1.38,1.38,0,0,0,1-.39,1.36,1.36,0,0,0,.41-1V95.17a1.37,1.37,0,0,0-1.14-1.33m-.73,8.2a2.78,2.78,0,0,1-2.31-2.74V95.17a2.79,2.79,0,0,1,2.81-2.77,2.59,2.59,0,0,1,.48,0,2.79,2.79,0,0,1,2.33,2.73V99.3a2.78,2.78,0,0,1-.83,2,2.83,2.83,0,0,1-2,.81,4.21,4.21,0,0,1-.5,0m5.75,0a.71.71,0,0,1-.59-.7V89a.69.69,0,0,1,.69-.71h0a.71.71,0,0,1,.72.7h0v7.33l3.33-3.68a.71.71,0,0,1,.66-.21.74.74,0,0,1,.36.16.7.7,0,0,1,0,1l-2.5,2.75,2.6,4.69a.66.66,0,0,1,.07.53.74.74,0,0,1-1.34.16l-2.34-4.24-.89,1v2.92a.67.67,0,0,1-.21.5.73.73,0,0,1-.64.2m31.83,0a2.68,2.68,0,0,1-1.88-1.3.72.72,0,0,1-.06-.54.68.68,0,0,1,.33-.43.72.72,0,0,1,.48-.08.69.69,0,0,1,.5.34,1.23,1.23,0,0,0,.86.59,1.3,1.3,0,0,0,1.07-.31,1.14,1.14,0,0,0,.38-1,1.16,1.16,0,0,0-.52-.92l-1.94-1.36a2.6,2.6,0,0,1-1.11-1.93,2.53,2.53,0,0,1,.85-2.06,2.62,2.62,0,0,1,2.14-.66h0a2.63,2.63,0,0,1,1.87,1.26.73.73,0,0,1,.06.54.67.67,0,0,1-.33.44.74.74,0,0,1-.48.08.7.7,0,0,1-.5-.35,1.23,1.23,0,0,0-.82-.55,1.13,1.13,0,0,0-1,.29,1.17,1.17,0,0,0-.37.92,1.12,1.12,0,0,0,.5.85l2,1.34a2.64,2.64,0,0,1,1.13,2,2.53,2.53,0,0,1-.87,2.11,2.72,2.72,0,0,1-2.21.69h0m5.58,0a.74.74,0,0,1-.6-.7V89a.72.72,0,0,1,.22-.51.75.75,0,0,1,.64-.19.72.72,0,0,1,.59.7v3.5h1.36a2.74,2.74,0,0,1,.5,0,2.78,2.78,0,0,1,2.31,2.74v6.11a.7.7,0,0,1-.7.71h-.14a.73.73,0,0,1-.6-.71v-6.1a1.34,1.34,0,0,0-1.35-1.35H94.76v7.46a.71.71,0,0,1-.71.71h-.14m9.92-8.23a1.36,1.36,0,0,0-1.21.38,1.31,1.31,0,0,0-.4,1v4.13a1.35,1.35,0,0,0,1.12,1.33,1.38,1.38,0,0,0,1.21-.37,1.36,1.36,0,0,0,.41-1V95.18a1.37,1.37,0,0,0-1.13-1.33m-.73,8.2a2.78,2.78,0,0,1-2.32-2.74V95.18a2.79,2.79,0,0,1,2.81-2.77,2.52,2.52,0,0,1,.48,0,2.79,2.79,0,0,1,2.33,2.73v4.13a2.76,2.76,0,0,1-.83,2,2.82,2.82,0,0,1-2.47.77m14.39-8.77a.68.68,0,0,0-.07-.52.79.79,0,0,0-.47-.33.72.72,0,0,0-.83.53c-.45,1.82-.92,3.65-1.39,5.48v0c-.6-2.36-1.39-5.45-1.4-5.48a.67.67,0,0,0-.55-.53A.71.71,0,0,0,112,93l-1.39,5.48,0,0v0c-.59-2.36-1.39-5.45-1.39-5.48a.71.71,0,0,0-.85-.52.7.7,0,0,0-.52.84l2.09,8.26a.71.71,0,0,0,.68.53.66.66,0,0,0,.68-.53s.81-3.13,1.4-5.48v0l0,0c.61,2.37,1.38,5.48,1.38,5.48a.75.75,0,0,0,.69.54.69.69,0,0,0,.68-.54l2.09-8.26"/></g></g></svg>