<svg xmlns="http://www.w3.org/2000/svg" viewBox="0 0 151.01 222.33"  xmlns:v="https://vecta.io/nano"><path d="M2.77 221.78l72.74-43 72.73 43a3.16 3.16 0 0 0 2.27-2.86V.5H.5v218.42a3.16 3.16 0 0 0 2.27 2.86z" fill="#16858e" stroke="#000" stroke-miterlimit="10"/><path d="M128.88 128.89c2.13-2.06 2.92-5.11 3.46-8a21.76 21.76 0 0 0 .38-7.32 25.48 25.48 0 0 0-3.16-7.84l-10.94-20.24a56.86 56.86 0 0 1-3.76-7.88A63.2 63.2 0 0 1 112 63.36c-4.39 3-9.83 3.9-15.09 4.6A269.71 269.71 0 0 1 46 69.85c-4.9-.28-10-.76-14.13-3.43-.61 11.61 4.65 22.29 9.32 33a142.42 142.42 0 0 1 7.09 20.08 28.37 28.37 0 0 1 1.31 8 11.07 11.07 0 0 1-2.76 7.46c20.73-1.13 41.21-2.79 61.89-4.52l20.16-1.55z" fill="#fffad0"/><g stroke-miterlimit="10" fill="none"><path d="M33.12 71.74a10.91 10.91 0 0 0-3.31-2c-.85-.27-1.89-.44-2.23-1.26 3.06 9.59 6 20.54 10 29.78s9.08 18.46 10 28.56a3.05 3.05 0 0 1-.07 1.28c-.42 1.22-2.19 1.44-3.26.73a6.27 6.27 0 0 1-2-3.19 199 199 0 0 1-7.43-26.19 53.28 53.28 0 0 0-1.52-5.84 50.37 50.37 0 0 0-2.71-6l-5.17-10.2c-.9-1.77-2-3.74-4-4.15a35.81 35.81 0 0 0 7.84 1.18m18.38 59.14a4.24 4.24 0 0 1-4.24-.39 11 11 0 0 1-3-3.29 36.08 36.08 0 0 1-4.5-8.86 49.87 49.87 0 0 1-1.51-7c-1.17-6.92-2.39-13.87-4.79-20.46s-6.08-12.81-11.48-17.29c.44-.14.34.25.79.32a24.84 24.84 0 0 0 6.15.26" stroke="#fffad0" stroke-width="2"/><g stroke="#16858e"><path d="M43.72 86.11a360.71 360.71 0 0 0 66.87-4.28m-63.91 8.76L71 89.73m-.79.61l6.56 17.93-23 1.8-7-19.4m75.46 14.97c-5.67.65-11.21 1.53-16.91 1.78a86.85 86.85 0 0 1-5-10.5A99.42 99.42 0 0 0 117 95.51c1.62 3.49 3.33 6.84 5.23 10.13z"/><path d="M74.53 90.39q9.48-.11 18.93-.79m-16.89 5.23q9.3-.1 18.57-1m.94-4.83q8.08-.78 16.13-1.87m-14.1 5.42a56.86 56.86 0 0 0 11.13-.8M77.51 99q9.48-.61 18.93-1.49m-16.73 5.99a86.26 86.26 0 0 0 11.35-.81l7.59-.89M81 107.92q4.47-.26 8.9-.89m-35 7.89c.16.2-.4.22-.35 0s.37-.32.62-.33q11.07-.7 22.13-1.7m-21.71 6.43a181.51 181.51 0 0 0 19.5-1m-19.5 5.41q11.89-.14 23.77-.94m-23.77 5.77q11.8-.08 23.58-1m2.94-14.98c6.37.29 12.71-1 19.08-1.42m-18.3 6.61a232.36 232.36 0 0 0 20.6-.92m-20.6 5.96v-.19c4.68.06 9.35-.67 14-1l6.93-.51m-22.59 5.59c5.2-.3 10.4-.74 15.57-1.34m10.41-14.58a127.2 127.2 0 0 0 16.89-1m-16.88 6.46q9.63-.84 19.29-1.43m-19.3 5.49l19.86-1.3m-20.24 6q9.44-1.23 18.94-1.64"/></g></g><g fill="#fffad0"><path d="M47.5 133.75a8 8 0 0 0 1.82-1.61 4.1 4.1 0 0 0 1-2.27.5.5 0 0 0-1 0 2.22 2.22 0 0 1-.27.85 3.89 3.89 0 0 1-.56.81 6.82 6.82 0 0 1-1.49 1.35.52.52 0 0 0-.18.69.52.52 0 0 0 .69.18z"/><path d="M48.26,134.2l.42-.2-.12.05a6.28,6.28,0,0,1,.73-.25.5.5,0,0,0,.3-.23.5.5,0,0,0-.56-.73,6.19,6.19,0,0,0-1.28.5.5.5,0,1,0,.51.86Z"/><path d="M47.39,133.65a.5.5,0,0,0,0-1,.5.5,0,0,0,0,1Z"/></g></svg>