<svg xmlns="http://www.w3.org/2000/svg" viewBox="0 0 151.01 222.33"><defs><style>.cls-1{fill:#f26527;stroke:#000;stroke-miterlimit:10;}.cls-2{font-size:34px;}.cls-2,.cls-6{fill:#ffe296;font-family:Lato-Bold, Lato;font-weight:700;}.cls-3{letter-spacing:0em;}.cls-4{letter-spacing:-0.02em;}.cls-5{letter-spacing:-0.03em;}.cls-6{font-size:10px;}.cls-7{letter-spacing:-0.02em;}.cls-8{letter-spacing:-0.02em;}.cls-9{letter-spacing:-0.01em;}.cls-10{letter-spacing:0em;}.cls-11{letter-spacing:-0.01em;}.cls-12{letter-spacing:-0.01em;}.cls-13{letter-spacing:-0.01em;}.cls-14{letter-spacing:-0.02em;}.cls-15{letter-spacing:-0.01em;}</style></defs><g id="Layer_2" data-name="Layer 2"><g id="Layer_1-2" data-name="Layer 1"><path class="cls-1" d="M2.77,221.78l72.74-43,72.73,43a3.16,3.16,0,0,0,2.27-2.86V.5H.5V218.92A3.16,3.16,0,0,0,2.77,221.78Z"/><text class="cls-2" transform="translate(24.64 114.39)"><tspan class="cls-3">i</tspan><tspan x="8.55" y="0">SPI</tspan><tspan class="cls-4" x="58.33" y="0">R</tspan><tspan class="cls-5" x="79.54" y="0">T</tspan></text><text class="cls-6" transform="translate(24.64 138.42)">balloon<tspan class="cls-7" x="32.85" y="0"> </tspan><tspan class="cls-8" x="35.04" y="0">v</tspan><tspan x="40.16" y="0">olu</tspan><tspan class="cls-9" x="54.03" y="0">n</tspan><tspan class="cls-10" x="59.6" y="0">t</tspan><tspan x="63.28" y="0">eer</tspan><tspan x="0" y="14.4">s</tspan><tspan class="cls-11" x="4.39" y="14.4">o</tspan><tspan x="10.01" y="14.4">ft</tspan><tspan class="cls-12" x="17.09" y="14.4">w</tspan><tspan x="25.05" y="14.4">a</tspan><tspan class="cls-13" x="30.13" y="14.4">r</tspan><tspan x="33.71" y="14.4">e enginee</tspan><tspan class="cls-14" x="76.6" y="14.4">r</tspan></text><text class="cls-6" transform="translate(24.64 77.22)">2020 - on<tspan class="cls-15" x="43.17" y="0">g</tspan><tspan x="48.36" y="0">oing</tspan></text></g></g></svg>