<svg xmlns="http://www.w3.org/2000/svg" viewBox="0 0 151.01 222.33"><defs><style>.cls-1{fill:#ff6201;stroke:#000;stroke-miterlimit:10;}.cls-2{fill:#bdceec;}</style></defs><g id="Layer_2" data-name="Layer 2"><g id="Layer_1-2" data-name="Layer 1"><path class="cls-1" d="M2.77,221.78l72.74-43,72.73,43a3.16,3.16,0,0,0,2.27-2.86V.5H.5V218.92A3.16,3.16,0,0,0,2.77,221.78Z"/><path class="cls-2" d="M56.11,89.51c-1-1.41-2.44-1.88-3.76-2.82a10,10,0,0,1-2.69-3.51C52.71,85.1,55.75,87.09,58,90l.07.15,1.74-4.53A3,3,0,0,0,60,83.36a3,3,0,0,0-1.94-1.3,38.3,38.3,0,0,1-10.36-5.58,3.53,3.53,0,0,1-1.41-1.7,78.86,78.86,0,0,0,8,4.83,5.38,5.38,0,0,1-1.79-3.68c-.18-1.39-.08-2.8-.27-4.19a20,20,0,0,0-1.2-4.21,8.71,8.71,0,0,1,2.82,5.14,38.3,38.3,0,0,0,1.37,5.83,3.42,3.42,0,0,0,.8,1.28,4,4,0,0,0,1.32.72l2.52,1a16.14,16.14,0,0,0-3.78-7.08C58.62,75.85,61,78,61.46,80.78,62.1,84.91,58.33,89,59.52,93a6.35,6.35,0,0,0,3,3.59,10.36,10.36,0,0,0,4.6,1.24h0a11.84,11.84,0,0,1-2.42-5.38,39.34,39.34,0,0,1-.94-10.71,47.22,47.22,0,0,0,.2-5.7,8.68,8.68,0,0,0-2-5.25c-1.13-1.26-2.72-2-4.09-3a12.79,12.79,0,0,1-3.28-3.48,12.71,12.71,0,0,0,4,2.66c1.53.64,3.43,1.22,3.87,2.83.33-3.2-2.85-5.83-3-9A37.63,37.63,0,0,1,65,75.82c.2,1.51.3,3,.41,4.54l0,0c2-2.4,4.19-5.2,3.83-8.32-.49-4.24-5.35-6.81-6.3-11a29.23,29.23,0,0,0,4.18,5.53c1.38,1.44,3,2.91,3.27,4.9a7.35,7.35,0,0,1-.9,3.94,32.21,32.21,0,0,1-2,3.79,11,11,0,0,0-1.56,3,8.71,8.71,0,0,0,.52,4.87h0a17.86,17.86,0,0,0,5.87-7c1.27-2.42,2.29-5.26,1.42-7.85a19.18,19.18,0,0,0-2.28-3.87A15.76,15.76,0,0,1,69,59.83c0-.72.4-1.7,1.09-1.51-1.2.75-1.12,2.56-.54,3.85s1.53,2.47,1.62,3.89A37.94,37.94,0,0,0,74,58.66a6.61,6.61,0,0,1-.6,3.57c-1,2.93-1,6.42,1,8.8,1.74-4,.52-8.75,2.39-12.64a78.55,78.55,0,0,1-.93,8.09,13.8,13.8,0,0,1,2.36-4A4.61,4.61,0,0,1,82.36,61l0,.09A11.56,11.56,0,0,0,75.93,68c-.84,2.5-.79,5.2-1.34,7.78a33.8,33.8,0,0,1-3.89,9,16.3,16.3,0,0,0,3.42-1.83,5.47,5.47,0,0,0,2.38-3c.33-1.4-.29-2.82-.72-4.19s-.66-3,.29-4.11a13.92,13.92,0,0,0,1.61,8.25l2.21-2.48A17.47,17.47,0,0,1,72,85.22c1.47.16,2.18,1.85,2.59,3.27-.85-1.53-2.43-3.08-4.11-2.58s-2.11,2.49-2.26,4.16a24.52,24.52,0,0,0,.26,7.21,12,12,0,0,0,3.35,6.29,3.79,3.79,0,0,0,1.92,1.09c1.42.23,2.71-.85,3.66-1.93a10,10,0,0,0,2.66-5A2.31,2.31,0,0,0,80,96.27a1.06,1.06,0,0,0-1.26-.52,1.7,1.7,0,0,0-.63.67L76,99.77l2.19-5.19.09-.12a17.61,17.61,0,0,0-4.56-.81,6.74,6.74,0,0,1-1.74-.2,1.78,1.78,0,0,1-1.23-1.15A1,1,0,0,1,71.53,91l0,.07a.73.73,0,0,0,.21.85,2,2,0,0,0,.86.39,13.07,13.07,0,0,0,5,.32l-.06,0a5.05,5.05,0,0,1-.28-2.89,33.94,33.94,0,0,1,1.6-7c.75-2.17,1.73-4.32,1.89-6.62a17.85,17.85,0,0,0-1.66-7.52h0a10.43,10.43,0,0,1,3.29,7.86c0,.7-.12,1.4-.22,2.1a8.21,8.21,0,0,1-.65,2.6l.12,0a10,10,0,0,1,2.2-1.79c.56-.33,1.15-.61,1.72-.91a12.32,12.32,0,0,0,3.52-2.48A5.7,5.7,0,0,0,90.76,72,8.74,8.74,0,0,0,90,69.05l.16.27c4.81,5-3.79,10-6.9,12.47a12.78,12.78,0,0,0-4.6,7c-.76,3.13.26,4.54,2.67,6.3l.12-.22c-.62-8.52,10.3-10.79,12.31-18,1-3.42,1.5-8.62-2-11s-7.2,1.18-9,3.91v0a8.89,8.89,0,0,1,4.87-5.27c1.09-.47,2.49-.66,3.35.15l0-.09a4.54,4.54,0,0,0-2.45-1.74,4.78,4.78,0,0,0-4.37,0l.12-.07a8.41,8.41,0,0,1,2.64-.93,6.88,6.88,0,0,1,4.39,1.37,6.3,6.3,0,0,1,2.41,2.42l-.06,0a5.51,5.51,0,0,1,2.21-5.6l.09,0a6.82,6.82,0,0,0-1.48,4.48A25.65,25.65,0,0,0,95,69.23c.3,1.61.53,3.24.71,4.87.2,1.94.17,4.25-1.43,5.38h.09a14.93,14.93,0,0,0,4.09-4.29l.12-.14c-1,3.21-4.25,5.84-6.6,8.07s-5.52,4.33-7.06,7.41c-1.44,2.86-1.64,6.18-3.23,9s-5,5-5.51,8.47l.25,0a33.31,33.31,0,0,0,7-8.89c1.67-3.37,2.67-6.72,6.41-8.33,3.22-1.38,8.22-.2,11-2.53,2.24-1.86-.25-7.07-2.55-8l0,0a4.8,4.8,0,0,1,4.44,5.6l.08,0c1.7-2.47,3.23-5.4,2.64-8.34-.4-2-1.78-3.78-2-5.83l0,0a3.49,3.49,0,0,1,1.93,2,10.15,10.15,0,0,1,.64,2.73l.24,1.68a8.38,8.38,0,0,1,0,3.56h.07l1.17-1.69a5.8,5.8,0,0,1,.86-1,8.82,8.82,0,0,1,1.2-.78,9.67,9.67,0,0,0,3.7-4.06h.06a3.32,3.32,0,0,1-1.11,3.14,25.2,25.2,0,0,1-2.83,2c-2.7,2-4.25,5.16-5.73,8.18a5.89,5.89,0,0,1-1.66,2.32h0a15,15,0,0,0,4.64.28,9.53,9.53,0,0,0,3.1-.49c2.61-1.06,4-4.28,6.68-5h.07a3.43,3.43,0,0,0-1.35,1.47c-.32.69-.41,1.46-.71,2.16a5.13,5.13,0,0,1-2.73,2.53,15.41,15.41,0,0,1-3.68.93l0,.05a5.69,5.69,0,0,0,4.35,1.94,6.48,6.48,0,0,0,1.24-.16,7.12,7.12,0,0,0,3.88-2.38l.08.1a2.58,2.58,0,0,1-1.15,1.76,28.76,28.76,0,0,1-3.62,2.49l.06.08c2,1.22,4.3.72,6.47.65l-.09.17c-3.23,1.62-6.51.82-9.46-1-3.22-1.94-5.71-3.14-9.57-3.18-3.15,0-6.64,0-9.46,1.58-3,1.71-4.15,5-5.55,7.92a61,61,0,0,1-7,10.86l0,0c3.36-1.81,8.85-2.17,11.16-5.39s1.53-7.68,4-10.78l0,0a7.63,7.63,0,0,0-.63,5.41h.07a38.86,38.86,0,0,0,5.75-2.13,12.75,12.75,0,0,0,4.75-3.79l0,0c.2,1.28-.79,2.44-1.85,3.17-2.94,2-7,2.38-9.14,5.24-.88,1.18-1.27,2.65-2,3.91h0a111.8,111.8,0,0,0,15.85-6.36,10.59,10.59,0,0,1,4.91-1.54h0a30.61,30.61,0,0,0-7.64,4.1l.11,0c.75-.19,1.46.46,1.84,1.14a5.61,5.61,0,0,0,1.26,1.94,3.15,3.15,0,0,0,2.84.1c1.32-.47,2.54-1.22,3.89-1.61a4.21,4.21,0,0,1,4,.56l0,0a8.19,8.19,0,0,0-3.86.6l-4,1.3a5.61,5.61,0,0,1-3.41.38l-.06.07c.21,1.73,1.6,3.08,3.06,4a22.4,22.4,0,0,1,4.28,3,13.13,13.13,0,0,1,1.46,2,7.12,7.12,0,0,1,1.29,3,2.44,2.44,0,0,1-1.47,2.62h-.1c.84-5.36-4.88-8.54-8.12-11.47v0c-1.9,5.12-5.46,10.14-3.93,15.86l-.07,0c-1.89-1.85-1.9-4.93-1-7.43s2.41-4.71,3.31-7.19,1-5.54-.77-7.48a2.22,2.22,0,0,0-1-.66,2.82,2.82,0,0,0-1.85.31l-10.49,4.32,0,.06c3,.72,6.12,2.32,7.26,5.2a9,9,0,0,1-.51,6.76,3.51,3.51,0,0,1-1.43,1.83l0,0c2.6-1.41,1.28-8.89-1-10.25h-.07a4,4,0,0,1-1,3.3,7.06,7.06,0,0,0-1.67,3.11l-.09-.19a8.88,8.88,0,0,1,1.19-2.94,3.09,3.09,0,0,0,.12-3A3.39,3.39,0,0,0,91,112.44c-4.53-.35-9.49,1.43-11.73,5.37a12.91,12.91,0,0,0-1.46,5.06,38,38,0,0,0,.84,10.62Q80,140.84,82,148.08l0,0q-7.59-.21-15.17.13h0c2.42-7.95,5-18.1,1.15-26.36-2.54-4.44-5.72-10.79-12.06-11.06h.23c-4.39-.12-1.18,6.86.12,8.38,1.46,1.69,5.68,5.32,2.52,7.62l-.1,0a3.31,3.31,0,0,0,.15-3.15A9.56,9.56,0,0,0,56.83,121L54,117.85c-1-1.11-2.06-2.34-2.13-3.84l0-.05a20.25,20.25,0,0,0-1.38,3,17.68,17.68,0,0,1-4.88,6.91,10.72,10.72,0,0,1-7.92,2.51l-.06,0A14.4,14.4,0,0,0,48,120.08c2-2.92,2.78-6.52,5-9.27.57-.71,1.46-1.41,2.32-1.1v0a7.37,7.37,0,0,0-6.91-1.31,2.79,2.79,0,0,0-1.94,1.64,3.13,3.13,0,0,0,.19,1.83,14.71,14.71,0,0,0,.84,2c.45.92,1,2,.55,2.92l0,.09c.45-1-2.49-4.89-3-6.15h0c.21.68-.4,1.31-.79,1.91a3.56,3.56,0,0,0-.57,2.15v.09a5.15,5.15,0,0,1-.24-3.2,11.37,11.37,0,0,1,1.26-3h0l-2.73.64c-1.93.46-4.06,1-5.13,2.72a6.51,6.51,0,0,0-.85,3,19.82,19.82,0,0,0,.26,5.1l0,0a7.6,7.6,0,0,1,4.77-12c.92-.17,1.86-.16,2.79-.24a14.64,14.64,0,0,0,4.32-1.07l0-.06q-4.07-.29-8.16-.27l-.09,0a15.91,15.91,0,0,1,9-.7,29.84,29.84,0,0,1,11.11,4.31,59.31,59.31,0,0,1,9,7.69l0,0a10,10,0,0,0-2.48-5.51,29.72,29.72,0,0,0-4.55-4.12,26.57,26.57,0,0,0-5-3.34A18.17,18.17,0,0,0,52,103.45a32,32,0,0,0-19.44,3l0,0c1.65-2,4.38-2.7,6.91-3.28l2.27-.51v-.09a23.59,23.59,0,0,1-6.21-4.41c-1.33-1.48-2.3-3.32-3.88-4.53l0,0c2.9,1.43,4.93,4.19,7.67,5.91,5.54,3.46,12.82,2.07,19,4.16h.06l-1.64-2.11a12.38,12.38,0,0,0-3.1-3.15,8.23,8.23,0,0,0-5.19-1,24.16,24.16,0,0,0-5.19,1.34h0c1.18-3.22,5.65-2.82,8.38-2.74h.22C48.07,93.43,42.35,93.42,38,94.1L38,94a14.08,14.08,0,0,1,6.28-1.45,4.18,4.18,0,0,1,1.54.24l.11,0A18.42,18.42,0,0,0,42.54,90a6.45,6.45,0,0,0-1.75-.85,6.36,6.36,0,0,0-2.57,0,23.52,23.52,0,0,0-4.88,1.34h0a8.48,8.48,0,0,1,5.9-2.91,7.29,7.29,0,0,1,3.84.82l0,0c-2.58-2.43-4.29-5.63-6.63-8.29L36.4,80c.56-.21,1.13.26,1.54.69a83.23,83.23,0,0,1,5.55,6.46v-.06c-.23-3.69-.51-7.55-2.44-10.71L41,76.27c1.7.27,2.41,2.29,2.7,4a53.4,53.4,0,0,0,1.36,7.11,10.47,10.47,0,0,0,4.06,5.82c.67.42,1.39.73,2.09,1.09,7.6,3.87,11.58,12.77,19.11,16.77h0a13.93,13.93,0,0,0-4.81-11.12c-1.92-1.64-4.32-2.76-5.93-4.72-.94-1.15-1.59-2.55-2.73-3.5a8.23,8.23,0,0,0-4.14-1.54,12.49,12.49,0,0,1-2.86-.56,3.15,3.15,0,0,1-2-2c2.2,2.08,6.34.19,8.57,2.23"/><path d="M56.16,89.49A10.4,10.4,0,0,0,52.83,87a9.64,9.64,0,0,1-3.12-3.8l-.07.07c1.58,1,3.16,2,4.63,3.17a23.85,23.85,0,0,1,2,1.75c.32.32.64.65.94,1a5,5,0,0,1,.79,1s.08,0,.09,0l1.33-3.44a6.21,6.21,0,0,0,.77-2.92,2.11,2.11,0,0,0-1.48-1.55c-.93-.39-1.9-.69-2.83-1.09a38.09,38.09,0,0,1-5.65-3c-.92-.59-1.84-1.22-2.7-1.9a3.84,3.84,0,0,1-1-1.13c-.26-.5.16,0,.35.07l.71.47c2.19,1.43,4.45,2.76,6.76,4,0,0,.11,0,.06-.08-1.69-1.35-1.83-3.65-1.9-5.65a16.28,16.28,0,0,0-.32-3.19,28,28,0,0,0-1-3.22l-.09,0c2.47,1.93,2.81,5.22,3.38,8.07A17.77,17.77,0,0,0,55.06,78a4.84,4.84,0,0,0,.79,1.57,4,4,0,0,0,1.7,1l2.36.94s.07,0,.06-.07a16.38,16.38,0,0,0-3.8-7.09l-.06.08a11.82,11.82,0,0,1,4.56,4.2,7.55,7.55,0,0,1,.33,6,39.74,39.74,0,0,0-1.69,5.64,6,6,0,0,0,1.45,5,9.18,9.18,0,0,0,6.35,2.62s0,0,0-.07a3.87,3.87,0,0,0-.48-.59c-.17-.24-.33-.49-.48-.74a11.49,11.49,0,0,1-.8-1.75,23.06,23.06,0,0,1-.91-3.5,38.31,38.31,0,0,1-.73-8.28c0-2.62.52-5.27.13-7.88a7.9,7.9,0,0,0-3.09-5.42c-1.08-.8-2.29-1.41-3.34-2.25a12.77,12.77,0,0,1-2.8-3.11l-.08.06a13.22,13.22,0,0,0,4.26,2.77c1.37.56,3.14,1.12,3.61,2.7a.05.05,0,0,0,.1,0c.3-3.35-2.81-5.79-3-9l-.09,0A37.87,37.87,0,0,1,63.63,70a46.93,46.93,0,0,1,1.68,10.4.05.05,0,0,0,.08,0,3.67,3.67,0,0,0,.57-.67c.26-.31.51-.63.76-.95a17.63,17.63,0,0,0,1.46-2.18A7.74,7.74,0,0,0,69.28,72c-.31-2.69-2.35-4.71-4-6.73A11,11,0,0,1,63,61l-.09,0a29.8,29.8,0,0,0,3.41,4.72c1.19,1.33,2.65,2.51,3.5,4.1,1.07,2,.34,4-.57,6-.43.89-.9,1.77-1.41,2.63S66.75,80.12,66.3,81c-1,2-.63,4.09,0,6.14,0,0,0,0,.06,0a2.34,2.34,0,0,0,.62-.42l.7-.55a15,15,0,0,0,1.51-1.47,20.84,20.84,0,0,0,2.36-3.3c1.38-2.35,2.76-5.14,2.41-8a8.7,8.7,0,0,0-1.69-3.8,20.1,20.1,0,0,1-2.2-3.92,15.8,15.8,0,0,1-1.05-4.44,5.75,5.75,0,0,1,0-2.11,1.31,1.31,0,0,1,.46-.75c.07,0,.27-.17.33-.11s0,0-.06.07-.17.15-.24.23a3.28,3.28,0,0,0-.31,3.1c.5,1.49,1.65,2.7,1.79,4.32a.05.05,0,0,0,.1,0A39.34,39.34,0,0,0,74,58.67h-.09c.28,1.33-.31,2.57-.69,3.81a13,13,0,0,0-.54,3,8.23,8.23,0,0,0,1.61,5.56s.07,0,.08,0c1.73-4,.52-8.67,2.4-12.65l-.1,0a78.68,78.68,0,0,1-.93,8.08s.07.09.1,0c1-2.2,2.18-4.74,4.73-5.42a3.61,3.61,0,0,1,.8-.13,4.22,4.22,0,0,1,1,.1c0,.08-.48.2-.57.25s-.48.24-.71.38a11.53,11.53,0,0,0-2.45,1.89,11.73,11.73,0,0,0-3,5.38c-.64,2.56-.6,5.24-1.3,7.79a37,37,0,0,1-3.64,8s0,.09,0,.07a14.57,14.57,0,0,0,4.17-2.4,4.33,4.33,0,0,0,1.74-3.78c-.17-1.67-1.11-3.15-1.16-4.85a3.86,3.86,0,0,1,.13-1.17,3,3,0,0,1,.22-.52.74.74,0,0,1,.14-.22c0-.11.07-.11,0,0a2,2,0,0,1,0,.23,14,14,0,0,0,1.67,7.8s.06,0,.08,0l2.21-2.47-.08-.07A17.58,17.58,0,0,1,72,85.18s0,.08,0,.09c1.55.21,2.18,1.93,2.56,3.24l.09,0a5,5,0,0,0-3.06-2.67,2.57,2.57,0,0,0-2.71,1.51,10.24,10.24,0,0,0-.79,4.14A23,23,0,0,0,68.4,97a13.67,13.67,0,0,0,1.67,4.46,7.39,7.39,0,0,0,3.13,3.13c1.42.58,2.79-.26,3.78-1.24a11.92,11.92,0,0,0,2.7-3.86c.41-1,1.16-3.49-.5-3.79-.75-.13-1.12.68-1.45,1.2l-1.8,2.9.09,0L77.18,97l.55-1.3a5.06,5.06,0,0,1,.56-1.23.05.05,0,0,0,0-.08,17.7,17.7,0,0,0-4.57-.82,4.53,4.53,0,0,1-2.18-.4c-.66-.4-1.12-1.36-.42-2,0,0,.34-.25.4-.2a2.84,2.84,0,0,0,0,.36.92.92,0,0,0,.2.46,2.57,2.57,0,0,0,1.46.62,13.33,13.33,0,0,0,4.54.2,0,0,0,0,0,0-.09c-.21-.13-.29-.65-.33-.88a4.65,4.65,0,0,1-.07-.91,14.65,14.65,0,0,1,.22-2.1,33.62,33.62,0,0,1,.8-3.87c.66-2.44,1.8-4.75,2.32-7.23a13.32,13.32,0,0,0-.73-7.17c-.2-.59-.44-1.17-.64-1.76l-.1-.09.21.2c.07.06.13.13.2.2.23.24.45.5.66.76a10.45,10.45,0,0,1,2.19,6.84c0,.79-.16,1.59-.27,2.38a7.41,7.41,0,0,1-.58,2.12,0,0,0,0,0,0,.07c.24,0,.36-.27.53-.43a9.28,9.28,0,0,1,1-.86,13.78,13.78,0,0,1,1.93-1.14,15.48,15.48,0,0,0,3.61-2.3,6.47,6.47,0,0,0,2-3.27A7,7,0,0,0,90,69l-.09,0c.23.39.56.7.82,1.08a4.4,4.4,0,0,1,.64,1.37,4.26,4.26,0,0,1-.31,2.79A13.56,13.56,0,0,1,87,78.92c-1.54,1.23-3.24,2.27-4.67,3.62a12.54,12.54,0,0,0-3.84,6.84,5,5,0,0,0,.35,3.22,8,8,0,0,0,2.47,2.53.06.06,0,0,0,.07,0,1.27,1.27,0,0,0,.11-.8,8.47,8.47,0,0,1,.09-1.42,8.18,8.18,0,0,1,.73-2.36,13.63,13.63,0,0,1,2.92-3.83c2.35-2.26,5.15-4.12,7.07-6.79a11.4,11.4,0,0,0,1.85-4.43,14.36,14.36,0,0,0,.21-5.54,6.17,6.17,0,0,0-2.89-4.38c-1.84-1-3.86-.47-5.48.69a12.44,12.44,0,0,0-2.54,2.48c-.16.19-.31.39-.46.6,0,0-.2.21-.2.28s.16-.31.19-.39a8.83,8.83,0,0,1,1-1.75,9,9,0,0,1,3-2.64c1.18-.64,2.87-1.21,4-.2,0,0,.1,0,.08,0-.33-1-1.7-1.53-2.59-1.9a4.7,4.7,0,0,0-2.08-.45,8.68,8.68,0,0,0-2.24.52l0,.09a5.74,5.74,0,0,1,5.22-.61,8,8,0,0,1,4.27,3.39l.08-.06c-.22-.17-.17-.85-.17-1.11a5.41,5.41,0,0,1,.17-1.34,5.58,5.58,0,0,1,1.1-2.17,4.55,4.55,0,0,1,.83-.81c.23-.16.18-.13,0,0a4.17,4.17,0,0,0-.4.6A6.69,6.69,0,0,0,94.48,63a15.42,15.42,0,0,0,.34,5.41c.37,2,.72,4,.89,6.08.15,1.72.1,3.83-1.43,5,0,0,0,.09,0,.1.3,0,.68-.4.92-.58a14.82,14.82,0,0,0,1.37-1.26,14.22,14.22,0,0,0,1.09-1.24c.33-.44.61-.94,1-1.36l-.08,0c-.81,2.63-2.91,4.64-4.87,6.46-1,.87-1.88,1.77-2.85,2.61s-2.07,1.75-3,2.69a14.93,14.93,0,0,0-2.52,3,16.19,16.19,0,0,0-1.56,3.86c-.41,1.41-.75,2.84-1.29,4.2a12.75,12.75,0,0,1-2.16,3.54c-1.67,2-3.72,3.85-4.11,6.54a.06.06,0,0,0,.07.06,1,1,0,0,0,.6-.38c.38-.37.77-.75,1.14-1.14.72-.73,1.42-1.49,2.09-2.27a25.69,25.69,0,0,0,3.43-5c1.57-3.11,2.71-6.63,6.07-8.27,3.11-1.52,6.81-.54,10-1.87a3.25,3.25,0,0,0,2.27-2.48,6.31,6.31,0,0,0-.9-3.81A7.44,7.44,0,0,0,99.54,81a3.82,3.82,0,0,0-.72-.55c-.11-.07-.27-.12-.37-.19v0s0,.06.12,0,.41,0,.6.1a4.81,4.81,0,0,1,3.65,5.42.05.05,0,0,0,.06.07c.2,0,.27-.28.38-.44.26-.4.52-.81.76-1.22a16,16,0,0,0,1.1-2.24,8.1,8.1,0,0,0,.46-4.81c-.39-1.59-1.31-3-1.76-4.54-.06-.19-.1-.38-.14-.57s-.19-.46.15-.31a3.08,3.08,0,0,1,1,.76,5.31,5.31,0,0,1,1.1,2.48c.21,1,.33,2.11.47,3.16a7.93,7.93,0,0,1,0,3.36s0,.06,0,.06h.07s0,0,.06,0l1-1.4a7,7,0,0,1,1-1.32,8.26,8.26,0,0,1,1.32-.85,9.42,9.42,0,0,0,1.1-.81,9.75,9.75,0,0,0,1.78-2c.13-.2.26-.4.38-.61a3.7,3.7,0,0,1,.31-.6,3.06,3.06,0,0,1,.08.64,2.64,2.64,0,0,1-.18.92c-.73,2-2.91,2.74-4.39,4a15.93,15.93,0,0,0-3.41,4.33c-.54.92-1,1.88-1.49,2.83a7.48,7.48,0,0,1-1.92,2.89.05.05,0,0,0,0,.08c.13.15.65.17.84.2.39.06.78.1,1.17.13a26.43,26.43,0,0,0,2.67,0,7.65,7.65,0,0,0,4.06-1,16.26,16.26,0,0,0,2.67-2.44,6.45,6.45,0,0,1,3.13-2.09l0-.09a3.59,3.59,0,0,0-1.53,1.92c-.19.53-.29,1.08-.49,1.6a4.16,4.16,0,0,1-.92,1.39,6.6,6.6,0,0,1-2.84,1.61,14.25,14.25,0,0,1-1.69.39l-.82.14c-.17,0-.15,0-.23.1a.06.06,0,0,0,0,.06,6,6,0,0,0,7.41,1.14,7.21,7.21,0,0,0,1.64-1.2c.12-.12.26-.35.4-.42s0-.12.08,0a1.61,1.61,0,0,1-.07.37,2.18,2.18,0,0,1-.59.93,13.77,13.77,0,0,1-1.9,1.5c-.7.5-1.43,1-2.18,1.4a0,0,0,0,0,0,.06,1.68,1.68,0,0,0,.75.45,5.58,5.58,0,0,0,1.4.38,13.11,13.11,0,0,0,2.8,0l.74,0a2.27,2.27,0,0,1,.73,0s.13-.15.06,0-.16.13-.26.18a7,7,0,0,1-1,.38,7.93,7.93,0,0,1-3.21.34,15.08,15.08,0,0,1-6-2.4,19.84,19.84,0,0,0-4.92-2.12,21.83,21.83,0,0,0-5.7-.46,18.71,18.71,0,0,0-5.71.83,9,9,0,0,0-4.21,3,22.18,22.18,0,0,0-2.51,4.52,50.17,50.17,0,0,1-3.35,6.21c-.64,1-1.32,2-2,3-.35.49-.7,1-1.06,1.45l-.59.79c-.14.17-.34.57-.53.65l0,.09c2.68-1.43,5.79-1.81,8.49-3.21a7.37,7.37,0,0,0,3-2.72,15,15,0,0,0,1.56-4.66,13.06,13.06,0,0,1,2.13-5.6,0,0,0,0,0,0-.06l0,0a.06.06,0,0,0-.09,0,7.8,7.8,0,0,0-.62,5.45,0,0,0,0,0,0,0,6,6,0,0,0,1.35-.4c.58-.18,1.16-.38,1.73-.58a24.4,24.4,0,0,0,3.16-1.35,14.67,14.67,0,0,0,2.57-1.7,12.4,12.4,0,0,0,1-1c.17-.18.33-.37.48-.56l.19-.24c0-.15,0-.14,0,0a1.27,1.27,0,0,1,0,.2c0,2.17-2.65,3.38-4.34,4.1a27.45,27.45,0,0,0-5,2.39,6.72,6.72,0,0,0-2,2.06c-.66,1.09-1,2.31-1.7,3.4a0,0,0,0,0,0,.07c.19.09.7-.18.88-.24l1.63-.54c1-.33,1.93-.67,2.9-1,1.92-.72,3.83-1.49,5.71-2.31s3.79-1.75,5.67-2.65a11.39,11.39,0,0,1,2.88-1c.28,0,.56,0,.84-.08s-.13.07-.24.11c-.43.17-.85.34-1.28.53a30.38,30.38,0,0,0-5.84,3.38s0,.08,0,.09a3.78,3.78,0,0,1,.75,0,2.07,2.07,0,0,1,1,.85c.37.53.56,1.17.94,1.69a2.6,2.6,0,0,0,3,.73c1.45-.39,2.72-1.24,4.15-1.69a4.26,4.26,0,0,1,4.09.5l0-.08a5,5,0,0,0-2.36.12c-1,.23-1.93.58-2.89.9l-2.79.92a5.6,5.6,0,0,1-3.23.32s0,0,0,0c-.23.24.07.85.18,1.1a4.78,4.78,0,0,0,.78,1.3,10.2,10.2,0,0,0,2.81,2.29,17,17,0,0,1,3.35,2.36,13.38,13.38,0,0,1,2.39,3.51c.59,1.2.83,2.88-.34,3.84a1.29,1.29,0,0,1-.48.28c-.15,0-.11.06-.13,0a4,4,0,0,1,.06-.84,6.15,6.15,0,0,0-.12-1.36,9.67,9.67,0,0,0-3-4.82c-1.6-1.58-3.47-2.86-5.14-4.36a0,0,0,0,0-.08,0,6.07,6.07,0,0,0-.39,1q-.28.7-.6,1.41c-.37.84-.76,1.67-1.13,2.51a30.9,30.9,0,0,0-1.79,4.93,12.73,12.73,0,0,0-.27,5c0,.23.08.45.14.68,0,0,.06.35.13.31a1.89,1.89,0,0,1-.2-.2,4.48,4.48,0,0,1-.75-1.07A6.37,6.37,0,0,1,101,124c-.22-3.79,2.25-6.87,3.61-10.21a10.21,10.21,0,0,0,.83-4.81,5.13,5.13,0,0,0-1.89-3.76c-.86-.58-1.81-.14-2.67.21l-3.36,1.39-6.8,2.81a.05.05,0,0,0,0,.08c.09.1.2.1.33.13l.83.24a14,14,0,0,1,1.67.63,10.2,10.2,0,0,1,2.82,1.85,7.16,7.16,0,0,1,1.82,7.13c-.32,1.3-.83,3.09-2.09,3.78,0,0,0,.12,0,.09,1.28-.53,1.5-2.45,1.51-3.63a11.24,11.24,0,0,0-1.17-5.22,5.79,5.79,0,0,0-.67-1c-.15-.16-.43-.5-.67-.49a.05.05,0,0,0,0,.07c.55,2.21-1.76,3.71-2.47,5.56a2.3,2.3,0,0,0-.19.68l.06.1,0-.1c0-.12,0-.33,0-.47a7.1,7.1,0,0,1,.69-1.66,6.46,6.46,0,0,0,.9-2.47,2.13,2.13,0,0,0-.86-1.94,4.42,4.42,0,0,0-2.28-.63,14.68,14.68,0,0,0-5.15.56,10.57,10.57,0,0,0-7.3,6.69c-1.44,4.32-.68,9.15.12,13.52q1.29,7.11,3.12,14.09a4,4,0,0,1,.21.82,3.72,3.72,0,0,1-.88,0l-1.87,0-3.66,0q-3.66,0-7.32.16l-.89,0-.35,0c-.41,0-.12,0-.13-.07a2.32,2.32,0,0,1,.19-.6c.07-.24.14-.49.22-.74.28-1,.56-1.94.81-2.92.53-2,1-4,1.31-6a31.54,31.54,0,0,0,0-11.86,18.34,18.34,0,0,0-1.94-5.12c-.76-1.34-1.53-2.69-2.41-4-1.69-2.48-3.88-4.84-6.84-5.73a8.77,8.77,0,0,0-2.28-.38v.1h.23v-.1c-4.22-.06-1.51,6.07-.33,7.89a15.8,15.8,0,0,0,1.6,1.87,11.12,11.12,0,0,1,2.13,2.92,3,3,0,0,1,.3,1.72,2.05,2.05,0,0,1-.28.76c0,.07-.7.92-.81.82a4.9,4.9,0,0,0,.36-.82,3,3,0,0,0,.08-1,4.42,4.42,0,0,0-.65-2,13.09,13.09,0,0,0-1.64-2.07c-.72-.81-1.45-1.61-2.17-2.41a18.29,18.29,0,0,1-2-2.35,5,5,0,0,1-.61-1.27c0-.09,0-.18-.07-.27a2,2,0,0,0-.07-.56s0-.05-.06-.08-.06,0-.08,0a35.84,35.84,0,0,0-1.7,3.73A21,21,0,0,1,48.19,121a13.09,13.09,0,0,1-6.2,4.84,10.21,10.21,0,0,1-2.24.5,8.25,8.25,0,0,1-1.11,0,2.44,2.44,0,0,1-1-.09l0,.1a14.49,14.49,0,0,0,10.1-5.83,21,21,0,0,0,2.12-3.86c.62-1.35,1.2-2.73,1.94-4a11.64,11.64,0,0,1,1.32-1.94,3.5,3.5,0,0,1,.94-.82,1.61,1.61,0,0,1,.7-.23c.18,0,.61.15.41-.11a2.52,2.52,0,0,0-.69-.48,8.17,8.17,0,0,0-.93-.48,7.6,7.6,0,0,0-1.88-.52,7,7,0,0,0-3.78.47,2.74,2.74,0,0,0-1.4,1.24,2.8,2.8,0,0,0,.08,2,18.44,18.44,0,0,0,1,2.43,5.7,5.7,0,0,1,.5,1.32,2.69,2.69,0,0,1-.14,1.32c0,.07.07.09.1,0a1.71,1.71,0,0,0-.19-1.19,15.05,15.05,0,0,0-.93-1.78c-.37-.64-.77-1.27-1.15-1.91-.16-.27-.32-.54-.47-.81a2.61,2.61,0,0,0-.26-.53.06.06,0,0,0-.09,0c.2.87-.66,1.55-1,2.27a4.79,4.79,0,0,0-.36,1.87l.1,0a5.17,5.17,0,0,1-.22-3.25,9.56,9.56,0,0,1,.53-1.53c.1-.22.2-.44.31-.66s.22-.59.39-.72a.05.05,0,0,0,0-.09c-1.34.32-2.69.6-4,1a8.62,8.62,0,0,0-2.9,1.34c-2,1.61-2,4.67-1.85,7a8.34,8.34,0,0,0,.25,2.05s.14.21,0,0a1,1,0,0,0-.12-.17c-.09-.14-.18-.28-.26-.42a7.74,7.74,0,0,1-1-4.69,7.57,7.57,0,0,1,4.09-5.89,11.21,11.21,0,0,1,4.51-.93,15.07,15.07,0,0,0,4.68-1.09s0-.05,0-.08l0,0a.05.05,0,0,0,0,0c-1.47-.1-3-.17-4.43-.22l-2,0H40.57c-.17,0-.35,0-.53,0-.49,0,.2-.13.34-.18a15.94,15.94,0,0,1,7.88-.54A30.33,30.33,0,0,1,62.44,112c1.15.91,2.25,1.87,3.32,2.87l1.65,1.56c.47.46,1,.89,1.42,1.39a0,0,0,0,0,.08,0,11.24,11.24,0,0,0-3.76-6.9A44.11,44.11,0,0,0,61.74,108a33.63,33.63,0,0,0-3.6-2.57,19.93,19.93,0,0,0-8.34-2.36,32.41,32.41,0,0,0-8.63.38,34.34,34.34,0,0,0-4.76,1.24c-.72.25-1.44.53-2.15.83-.39.17-.78.34-1.16.53a1.7,1.7,0,0,0-.62.34s0,.11.07.06c2.2-2.61,6-3.06,9.16-3.77a.05.05,0,0,0,0,0v-.09s0,0,0,0a24.58,24.58,0,0,1-5.83-4,26.86,26.86,0,0,1-2.17-2.69c-.3-.39-.6-.77-.93-1.14-.19-.21-.39-.42-.6-.62s-.46-.31-.57-.49l-.07.07a22.55,22.55,0,0,1,4.76,3.61A17.72,17.72,0,0,0,41,100.48c3.49,1.51,7.38,1.63,11.1,2,1.17.13,2.33.28,3.47.51.53.11,1.05.23,1.56.37q.42.1.84.24a.66.66,0,0,0,.36.08,0,0,0,0,0,0-.07c-.68-.89-1.36-1.78-2-2.65a12.46,12.46,0,0,0-2.09-2.2A7.73,7.73,0,0,0,49,97.33a15.38,15.38,0,0,0-3.16.55c-.51.14-1,.3-1.53.47l-.8.26c-.19.06-.2.12-.18,0a1.11,1.11,0,0,1,.18-.38,4.77,4.77,0,0,1,3.63-2,36.22,36.22,0,0,1,4.66-.09,0,0,0,0,0,0-.09,15,15,0,0,0-7.6-2.26,27.79,27.79,0,0,0-4.28.1c-.59,0-1.23.23-1.82.23-.23,0,.13-.09.22-.14l.74-.31a12,12,0,0,1,1.15-.39,10.05,10.05,0,0,1,5.64-.3s.08,0,0-.08a18.13,18.13,0,0,0-3.62-3,5.09,5.09,0,0,0-2-.79,7.81,7.81,0,0,0-2.21.12,24.89,24.89,0,0,0-2.56.57c-.4.12-.81.24-1.21.38l-.55.2c-.21.07-.47.28-.21,0A8.44,8.44,0,0,1,37.43,88a7.63,7.63,0,0,1,5.61.51,0,0,0,0,0,.06,0l0,0a0,0,0,0,0,0-.07c-2.39-2.28-4-5.17-6.12-7.7l-.4-.47a.54.54,0,0,1-.15-.22.94.94,0,0,1,.44,0,2.46,2.46,0,0,1,1.12.82c.63.66,1.24,1.33,1.85,2q1.86,2.1,3.57,4.32s.08,0,.09,0A3.78,3.78,0,0,0,43.48,86c0-.52-.07-1-.12-1.55-.09-1-.21-2-.39-2.94a18.32,18.32,0,0,0-.78-2.88A8.56,8.56,0,0,0,41,76.24l0,.08c1.54.28,2.2,1.9,2.52,3.26.42,1.79.55,3.64.91,5.44C45,88.11,46.27,91.4,49,93.19c.75.49,1.59.83,2.38,1.25a20.88,20.88,0,0,1,1.88,1.14,29,29,0,0,1,3.58,3c2.18,2.11,4.11,4.44,6.18,6.65a40.81,40.81,0,0,0,3.69,3.51,23.22,23.22,0,0,0,1.87,1.39c.36.24.73.47,1.1.69.16.09.45.35.65.31,0,0,0,0,0,0a14,14,0,0,0-5.16-11.43c-1.78-1.43-3.88-2.49-5.4-4.22-.77-.87-1.32-1.9-2-2.8a6,6,0,0,0-2.58-1.89,20,20,0,0,0-3.92-.79c-1.39-.23-2.93-.82-3.37-2.3l-.08,0c2.38,2.16,6.17.11,8.57,2.22,0,0,.12,0,.07-.07-2.41-2.11-6.2-.07-8.57-2.22a.05.05,0,0,0-.09,0,3.46,3.46,0,0,0,2.5,2.17c1.45.42,3,.39,4.44.85a6.33,6.33,0,0,1,2.13,1.13,8.78,8.78,0,0,1,1.42,1.68,14.88,14.88,0,0,0,2.59,3.11c1.05.89,2.22,1.61,3.33,2.41a14.86,14.86,0,0,1,3.07,2.85,14,14,0,0,1,3,7.88c0,.32,0,.65,0,1a.74.74,0,0,1,0,.21c-.06.15.06.08-.08,0a2.09,2.09,0,0,1-.46-.26c-.54-.31-1.07-.65-1.58-1a28.09,28.09,0,0,1-3-2.47c-1.84-1.73-3.49-3.64-5.18-5.51a45,45,0,0,0-5.42-5.28,20.79,20.79,0,0,0-3-2,15.37,15.37,0,0,1-3.73-2.3c-2.16-2.13-3-5.14-3.51-8-.26-1.48-.39-3-.73-4.47a5.29,5.29,0,0,0-1.39-2.79,2.51,2.51,0,0,0-1.22-.6.06.06,0,0,0,0,.09,7.58,7.58,0,0,1,1,1.9,15.46,15.46,0,0,1,.64,2,26.82,26.82,0,0,1,.69,4.26c.06.7.11,1.39.16,2.09,0,0,0,.56,0,.56s-.15-.28-.14-.26l-.74-.94q-1.44-1.78-3-3.5c-.58-.65-1.15-1.31-1.77-1.9a1.52,1.52,0,0,0-1.44-.56.05.05,0,0,0,0,.08,2.31,2.31,0,0,0,.38.52c.26.31.52.63.77,1,.49.63,1,1.27,1.42,1.91.86,1.19,1.71,2.39,2.66,3.51.23.27.47.54.71.8l.38.39s.1.11.16.16.27.17.16.13a8.92,8.92,0,0,0-2-.69,8.16,8.16,0,0,0-4,.35,8.63,8.63,0,0,0-3.65,2.47.05.05,0,0,0,0,.08c.08.06.2,0,.29-.08l.87-.31c.59-.2,1.18-.37,1.78-.53a13.48,13.48,0,0,1,3.68-.54,6.11,6.11,0,0,1,3.24,1.41,18.87,18.87,0,0,1,2.7,2.36l0-.08A8.38,8.38,0,0,0,42,92.7,14.46,14.46,0,0,0,37.93,94a.05.05,0,0,0,0,.08c.12.12.07.06.24.06a8.3,8.3,0,0,0,1-.14c.58-.07,1.16-.12,1.74-.16a26.08,26.08,0,0,1,3.75,0,14.51,14.51,0,0,1,7.13,2.22l0-.1c-2.89.05-7.34-.64-8.65,2.79,0,0,0,0,0,0s.51-.14.61-.17l1.28-.41a18.92,18.92,0,0,1,2.44-.61,9.46,9.46,0,0,1,4.87.27,8.5,8.5,0,0,1,3.69,2.94c.57.71,1.12,1.44,1.68,2.16a4.7,4.7,0,0,0,.38.5c.07.07.25.12.09.12a1.52,1.52,0,0,1-.2-.06c-.37-.12-.75-.23-1.12-.33-5.7-1.46-12.13-.49-17.36-3.6-2.87-1.7-4.9-4.54-7.92-6,0,0-.1,0-.07.07.12.2.41.35.58.51A10.29,10.29,0,0,1,33,95c.53.63,1,1.3,1.51,2a15.36,15.36,0,0,0,3.27,3.22,25,25,0,0,0,2.13,1.38l1,.57.53.3s.24.12.24.15a2,2,0,0,1-.4.1,46.4,46.4,0,0,0-4.78,1.2,8.68,8.68,0,0,0-4,2.5l.08.06c.13-.17.54-.28.73-.38l.87-.39c.63-.27,1.26-.52,1.91-.75A32.34,32.34,0,0,1,47,103.08a28,28,0,0,1,7.66,1,20.13,20.13,0,0,1,6.8,3.84A26.6,26.6,0,0,1,67,113.14a10.33,10.33,0,0,1,1.58,3.21c.07.29.14.58.18.87,0,0,.1.42.1.49s.19.18-.08-.08c-.46-.46-.93-.91-1.4-1.36-3.57-3.44-7.34-6.62-11.94-8.58a28.92,28.92,0,0,0-7.63-2.1,15.29,15.29,0,0,0-8,.85,0,0,0,0,0,0,.08,3.37,3.37,0,0,0,1.27,0l1.95,0c1.27,0,2.54.09,3.81.16l.89.06.32,0-.42.13a12.85,12.85,0,0,1-1.73.54,22.84,22.84,0,0,1-3.68.45A8.08,8.08,0,0,0,37.1,110a7.53,7.53,0,0,0-2.4,4.57,7.92,7.92,0,0,0,.25,3.21,8.5,8.5,0,0,0,.58,1.44,3,3,0,0,0,.65,1,.05.05,0,0,0,.07-.06,19.9,19.9,0,0,1-.28-4.75,6,6,0,0,1,1.37-4,7.1,7.1,0,0,1,3.19-1.69c1.36-.4,2.76-.69,4.14-1l0-.1a1.29,1.29,0,0,0-.27.47c-.15.29-.3.58-.44.88a9.47,9.47,0,0,0-.58,1.7,5.17,5.17,0,0,0,.24,3.25s.09,0,.09,0a8.13,8.13,0,0,1,.12-1.2,4.07,4.07,0,0,1,.6-1.24,2.2,2.2,0,0,0,.65-1.73l-.09.05a2.2,2.2,0,0,1,.25.51c.13.25.28.49.42.73.35.59.72,1.17,1.07,1.76a19,19,0,0,1,.93,1.72c.18.38.48,1,.31,1.4l.1,0a2.78,2.78,0,0,0,.08-1.59,12.55,12.55,0,0,0-.84-1.92,10.51,10.51,0,0,1-.82-2.3,2,2,0,0,1,.9-2.16,6.16,6.16,0,0,1,3.88-.81,7.29,7.29,0,0,1,4,1.62.05.05,0,0,0,.08,0v0s0,0,0-.06c-1.53-.46-2.69,1.44-3.35,2.52a46.17,46.17,0,0,0-2.32,4.74,18.38,18.38,0,0,1-2.72,4.49A14.09,14.09,0,0,1,43,124.55a14.25,14.25,0,0,1-5.43,1.74,0,0,0,0,0,0,.09,3,3,0,0,0,1.28.11,10,10,0,0,0,1.64-.17,10.7,10.7,0,0,0,3.18-1.13,13.91,13.91,0,0,0,4.89-4.57,21,21,0,0,0,1.65-3c.22-.47.41-1,.61-1.45s.29-.7.45-1a3.28,3.28,0,0,1,.52-1l0-.11,0,.21a1.66,1.66,0,0,0,0,.22,3.78,3.78,0,0,0,.24.81,6.53,6.53,0,0,0,.8,1.38c.75,1,1.63,1.89,2.46,2.8,1.61,1.79,4.93,4.63,3.15,7.32a0,0,0,0,0,0,.06l.1.05h.05c2.83-2.12-.28-5.3-1.92-7.05A10.3,10.3,0,0,1,55,117.18a10.74,10.74,0,0,1-1.14-3.83,2.79,2.79,0,0,1,.36-1.72,2.05,2.05,0,0,1,1.82-.75.05.05,0,0,0,0-.1h-.23c-.06,0-.06.09,0,.1,5.39.27,8.56,5,11,9.23a21,21,0,0,1,1.74,3.6,21.73,21.73,0,0,1,1,4.7,34.66,34.66,0,0,1-.41,9.7,81.88,81.88,0,0,1-2.51,10.13.05.05,0,0,0,0,.06,14.2,14.2,0,0,0,1.72-.06l2-.07c1.37,0,2.74-.06,4.11-.07s2.73,0,4.1,0l2,0,1.07,0c.12,0,.17,0,.25-.06a0,0,0,0,0,0,0q-1.53-5.74-2.7-11.57a54.25,54.25,0,0,1-1.52-11.89c.08-3.5.94-7,3.74-9.36a13.21,13.21,0,0,1,8.34-2.81c1.76,0,4.32.28,4.05,2.65a8.85,8.85,0,0,1-1.14,2.82c-.25.51-.65,1.26-.4,1.82,0,0,.08,0,.09,0,.25-1.77,1.8-2.9,2.47-4.48a3.38,3.38,0,0,0,.27-.94,2.79,2.79,0,0,0,0-.58s0-.11,0-.15-.11-.22,0-.21.33.27.42.37a4.18,4.18,0,0,1,.45.57,10.51,10.51,0,0,1,1.4,6.47c-.1.94-.41,2.33-1.4,2.74l0,.09a3.63,3.63,0,0,0,1.45-1.84,11.49,11.49,0,0,0,.83-2.69,7.25,7.25,0,0,0-.85-5.16,8.61,8.61,0,0,0-3.5-3,15.14,15.14,0,0,0-2.37-.93l-.51-.14s-.38-.07-.38-.11.36-.11.28-.08c.55-.21,1.09-.45,1.64-.68l6.4-2.64a19.75,19.75,0,0,1,3-1.19c1.23-.27,2.09.77,2.59,1.76,1.86,3.67-.55,7.65-2.17,10.89a13.35,13.35,0,0,0-1.69,5.62,7,7,0,0,0,.43,2.67,5.45,5.45,0,0,0,.59,1.12c.17.24.39.61.66.73,0,0,.09,0,.08-.06-1.25-4.8,1.1-9.25,3-13.52.19-.45.39-.91.58-1.37.09-.22.16-.46.27-.68s0-.2.18-.13a1.93,1.93,0,0,1,.31.27c.64.55,1.3,1.07,2,1.6a25.18,25.18,0,0,1,3.88,3.63,7.41,7.41,0,0,1,1.8,5.79s0,.06.05.06c.63,0,1.16-.69,1.39-1.21a3.23,3.23,0,0,0,0-2.37,11.94,11.94,0,0,0-1.51-2.73,8.84,8.84,0,0,0-2-2.27c-1.62-1.25-3.59-2-5-3.54a5.41,5.41,0,0,1-.9-1.27,3.38,3.38,0,0,1-.3-.74c0-.11-.06-.22-.08-.33s-.06-.26.2-.21a6.3,6.3,0,0,0,3.12-.41l3.86-1.27c1.24-.41,2.73-1,4-.64a.05.05,0,0,0,0-.09,4.23,4.23,0,0,0-3.9-.61c-1.72.46-3.22,1.63-5,1.89a2.26,2.26,0,0,1-2.43-1,9.32,9.32,0,0,0-1.17-1.91,1.92,1.92,0,0,0-.7-.45,1.76,1.76,0,0,0-.4-.07h-.14c-.25,0-.1,0,.06-.09.77-.48,1.5-1,2.29-1.5s1.73-1,2.63-1.39c.51-.23,1-.46,1.54-.67l.75-.29c.07,0,.15,0,.19-.09s0-.07,0-.07a8.73,8.73,0,0,0-3.8,1c-1.39.65-2.75,1.35-4.15,2q-4.31,2-8.78,3.57c-.72.26-1.45.51-2.18.75l-1,.35-.49.16c-.32.08-.18,0-.07-.23a22.89,22.89,0,0,1,2-3.7c1.51-1.88,3.92-2.65,6.06-3.54a13.37,13.37,0,0,0,3.27-1.75c.81-.64,1.87-1.88,1.51-3,0,0-.07,0-.09,0-1.9,2.56-4.84,4-7.79,5-.76.27-1.52.51-2.29.75l-.24.07c-.34.1-.1.06-.2-.06a1.56,1.56,0,0,1-.1-.53,7.11,7.11,0,0,1-.09-1.3,7.7,7.7,0,0,1,.42-2.42c.07-.19.14-.37.23-.56a1.82,1.82,0,0,0,.13-.28c0-.14,0-.1-.08,0s-.4.57-.5.74c-1.35,2.26-1.44,5-2.22,7.42a8,8,0,0,1-2,3.39,10.16,10.16,0,0,1-3.08,1.85c-2.4,1-5,1.44-7.31,2.66,0,0,0,.11,0,.09.21-.08.35-.39.48-.56l.89-1.18c.57-.77,1.12-1.54,1.67-2.33a54,54,0,0,0,3-4.94c1.53-2.82,2.48-6.19,4.81-8.5,2.63-2.63,6.59-2.89,10.1-2.88a17.85,17.85,0,0,1,5.15.6A20.93,20.93,0,0,1,109,94.78a15.15,15.15,0,0,0,5.57,2.27,8.12,8.12,0,0,0,2.78-.11,7.5,7.5,0,0,0,1.46-.46c.28-.11.52-.17.66-.43a.05.05,0,0,0,0-.08c-1.18,0-2.36.2-3.54.15a6.88,6.88,0,0,1-1.85-.3,2.61,2.61,0,0,1-.93-.42c-.17-.06-.19-.11,0-.15l.14-.08.48-.29a24.74,24.74,0,0,0,3-2.16,3.15,3.15,0,0,0,.87-1.08c.1-.24.22-.52.05-.73,0,0-.05,0-.07,0-2,2.35-5.54,3.37-8.25,1.6a5.84,5.84,0,0,1-.86-.7s-.11-.1-.15-.15-.13-.06,0-.14.49-.08.65-.11a15.5,15.5,0,0,0,2.33-.56,5.88,5.88,0,0,0,3-2.14,7.29,7.29,0,0,0,.82-2.12,3.64,3.64,0,0,1,1.58-2.14,0,0,0,0,0,0-.09,4.92,4.92,0,0,0-2.26,1.25c-.78.67-1.46,1.45-2.2,2.16a6.93,6.93,0,0,1-2.81,1.8,15.91,15.91,0,0,1-4.24.36,12.69,12.69,0,0,1-2.22-.16,1.94,1.94,0,0,1-.49-.1c-.15-.1-.12,0-.06-.13s.23-.21.31-.29l.24-.28a19.54,19.54,0,0,0,1.75-3.25,19.19,19.19,0,0,1,4.3-6c1.72-1.48,5.3-2.84,4.57-5.74a0,0,0,0,0,0,0h-.06a0,0,0,0,0-.06,0,9.81,9.81,0,0,1-2.64,3.32c-.63.5-1.35.84-2,1.31A5.63,5.63,0,0,0,107.44,80l-.68,1c-.05.08-.34.39-.32.46a2.63,2.63,0,0,1,.14-.57,8.61,8.61,0,0,0,0-2.21c-.09-.75-.21-1.5-.32-2.25a13.34,13.34,0,0,0-.48-2.44,4.53,4.53,0,0,0-1-1.72c-.22-.22-.9-.86-1.23-.7a.07.07,0,0,0,0,.06,20.27,20.27,0,0,0,1.61,4.43,7.61,7.61,0,0,1,.19,5,13.22,13.22,0,0,1-1.06,2.48c-.19.35-.39.7-.6,1a6.82,6.82,0,0,1-.76,1.12c.07,0,.09-.8.09-.87a4.84,4.84,0,0,0-2.85-4.29,5.07,5.07,0,0,0-1.06-.35c-.19,0-.55-.15-.72,0a.06.06,0,0,0,0,.1,5.09,5.09,0,0,1,2.26,2.17,7.35,7.35,0,0,1,1.13,3.27,2.86,2.86,0,0,1-1.36,2.8,9,9,0,0,1-3.78,1.13c-2.49.29-5.14.13-7.41,1.35s-3.62,3.54-4.72,5.87a37.47,37.47,0,0,1-2,3.89,28.91,28.91,0,0,1-3,3.92c-.53.6-1.08,1.18-1.64,1.75-.27.28-.54.55-.82.82s-.56.71-.79.66,0,.09,0-.05a.58.58,0,0,1,0-.19c0-.17.07-.33.11-.49a7.6,7.6,0,0,1,.38-1,9.92,9.92,0,0,1,1-1.63c.8-1.08,1.74-2,2.6-3.07a12.64,12.64,0,0,0,2.06-3.32c1.21-2.94,1.48-6.24,3.34-8.9C87.49,86.79,90,85.06,92.18,83s4.29-3.74,5.69-6.19a8.7,8.7,0,0,0,.77-1.77s0-.09-.08,0c-.49.58-.86,1.25-1.35,1.83a13.76,13.76,0,0,1-1.79,1.79c-.2.17-.41.34-.63.5l-.4.3c.19,0,.54-.47.64-.61a4.14,4.14,0,0,0,.72-1.78,15.21,15.21,0,0,0-.19-4.71c-.27-2.06-.76-4.1-1-6.17A7.9,7.9,0,0,1,95.91,60a0,0,0,0,0,0-.07l-.08,0s0,0,0,0a5.53,5.53,0,0,0-2,2.68,5.62,5.62,0,0,0-.32,1.67c0,.3-.07,1.17.2,1.38a0,0,0,0,0,.07-.06,8.08,8.08,0,0,0-4.32-3.44,5.88,5.88,0,0,0-5.3.62.05.05,0,0,0,0,.1,8.92,8.92,0,0,1,2.05-.51,4.08,4.08,0,0,1,1.92.32c.93.36,2.47.88,2.81,2l.09,0c-1.44-1.26-3.62-.24-4.94.68a9,9,0,0,0-3.37,4.46,0,0,0,0,0,0,0l0,0s.06,0,.08,0c1.6-2.34,4.47-5.39,7.63-4.52,3,.83,4,4.13,4,6.91a13.91,13.91,0,0,1-1.9,7.24,24.21,24.21,0,0,1-4.8,5A25.63,25.63,0,0,0,83,89.1,9.27,9.27,0,0,0,81.62,92a8.39,8.39,0,0,0-.25,1.58,8.81,8.81,0,0,0,0,.89.93.93,0,0,1,0,.44c-.09.18-.13,0-.29-.07a6.26,6.26,0,0,1-2.47-3,7.46,7.46,0,0,1,.56-4.48,12.79,12.79,0,0,1,2.77-4.26,22.7,22.7,0,0,1,2.89-2.38A25.8,25.8,0,0,0,90.18,76c1.3-1.67,2-3.75.77-5.66-.28-.45-.67-.81-.93-1.26,0,0-.12,0-.1,0a8,8,0,0,1,.79,3.21,5.44,5.44,0,0,1-1,2.85c-1.24,1.79-3.22,2.73-5.09,3.72a11,11,0,0,0-2.43,1.68c-.08.08-.42.52-.53.5.08,0,.22-.45.24-.51A8.08,8.08,0,0,0,82.22,79a13,13,0,0,0-.13-5.79A10.49,10.49,0,0,0,80,69.27c-.19-.22-.53-.72-.82-.8a.05.05,0,0,0-.06.06,25.88,25.88,0,0,1,1.49,4.85,11.52,11.52,0,0,1-.31,5.22c-.46,1.6-1.12,3.12-1.62,4.7a33.33,33.33,0,0,0-1.2,5,16.51,16.51,0,0,0-.27,2.62A4.32,4.32,0,0,0,77.31,92c.06.21.12.52.31.65l0-.1a13.42,13.42,0,0,1-3.69,0,9.68,9.68,0,0,1-1.58-.34c-.4-.14-.8-.38-.81-.84,0-.14,0-.24,0-.37s0,0-.06,0A1.16,1.16,0,0,0,71,92.88c.85,1,2.42.77,3.58.88a18,18,0,0,1,2.53.42l.66.18.45.1s-.26.54-.29.6l-2,4.7s.06.08.09,0l1.29-2.06.62-1c.22-.36.46-.87.9-1a1,1,0,0,1,1.14.67,2.35,2.35,0,0,1,.1,1.29,7.21,7.21,0,0,1-.64,2.07A12.59,12.59,0,0,1,77,103.13c-1.06,1.08-2.53,2-4,1.2a8,8,0,0,1-2.85-3,13.36,13.36,0,0,1-1.49-3.75,19.74,19.74,0,0,1-.46-4.72,18.9,18.9,0,0,1,.36-4.18c.3-1.28,1-2.69,2.51-2.78s2.84,1.4,3.54,2.65c0,0,.11,0,.1,0a5.45,5.45,0,0,0-1.61-2.89,2,2,0,0,0-.69-.35c-.07,0-.19-.06-.19,0a2.89,2.89,0,0,1,.5-.26,16.82,16.82,0,0,0,1.84-1.17,17.7,17.7,0,0,0,5.41-6.34c0-.05,0-.11-.08-.07l-1,1.11-.52.59a3.72,3.72,0,0,1-.53.59c-.23.15-.28-.16-.38-.36s-.19-.38-.27-.57a12.94,12.94,0,0,1-.54-1.47,14.05,14.05,0,0,1-.51-5.62.05.05,0,0,0-.09,0c-1.83,2.21.48,5.06.51,7.44a4.68,4.68,0,0,1-2.28,3.73A15.33,15.33,0,0,1,72.37,84c-.31.17-.63.32-1,.46a3.18,3.18,0,0,1-.59.24c0-.05.2-.37.23-.43A32,32,0,0,0,74.6,76c.66-2.94.5-6.06,1.73-8.87a11.61,11.61,0,0,1,6.1-6s0,0,0-.08-.32-.16-.51-.18a4,4,0,0,0-1.19.07,5.08,5.08,0,0,0-2.1,1,11.59,11.59,0,0,0-2.89,4.47l.09,0a78.74,78.74,0,0,0,.93-8.1s-.07-.07-.09,0c-1.45,3.08-1.06,6.55-1.6,9.82-.06.39-.14.78-.23,1.16a5.52,5.52,0,0,1-.4,1.27c-.16.26-.26.18-.41,0l-.29-.46a7,7,0,0,1-.54-1.22A9.84,9.84,0,0,1,73,64.07a18.81,18.81,0,0,1,.73-2.67A5.09,5.09,0,0,0,74,58.65a0,0,0,0,0-.09,0A39.76,39.76,0,0,1,71.09,66l.09,0c-.13-1.47-1.05-2.62-1.62-3.92s-.72-3,.52-3.78c0,0,0-.08,0-.09-.56-.11-.89.37-1,.85a6.61,6.61,0,0,0,0,2.73,15.83,15.83,0,0,0,1.78,5.64c1,1.89,2.68,3.51,3.06,5.7a10.71,10.71,0,0,1-1.43,6.48,22.5,22.5,0,0,1-3.37,5.09,13.49,13.49,0,0,1-2.33,2.07c-.3.21-.34.15-.45-.2l-.21-.73A9.78,9.78,0,0,1,65.76,84a6,6,0,0,1,.81-3.34c.54-1,1.17-1.86,1.71-2.82a29.65,29.65,0,0,0,1.51-3A7.16,7.16,0,0,0,70.47,72c0-2.07-1.58-3.62-2.94-5A31.3,31.3,0,0,1,63,61c0-.05-.1,0-.09,0,1.08,4.57,6.81,7.19,6.31,12.26a9.35,9.35,0,0,1-1.68,4.19,21,21,0,0,1-1.38,1.87c-.22.27-.43.56-.67.81l0,.06q-.09.12,0,0a2.09,2.09,0,0,1,0-.24c0-.26,0-.52-.06-.78A43,43,0,0,0,63.75,70a37.75,37.75,0,0,0-4.22-9.28,0,0,0,0,0-.09,0c.19,3.26,3.3,5.71,3,9l.1,0c-.41-1.37-1.78-2-3-2.49a14.83,14.83,0,0,1-4.89-3s-.11,0-.07.06a14.37,14.37,0,0,0,4.67,4.41A12.37,12.37,0,0,1,62,70.86,7.57,7.57,0,0,1,63.57,74c.65,2.53.25,5.16.12,7.72A38.85,38.85,0,0,0,64,89.19,22.84,22.84,0,0,0,65.82,96a9.36,9.36,0,0,0,.86,1.38c0,.07.29.31.27.38a7.33,7.33,0,0,1-1.19-.13A9.5,9.5,0,0,1,62.3,96.4a6,6,0,0,1-3-5.46c.12-2,1-3.92,1.62-5.82a8.06,8.06,0,0,0,0-6.14,11.52,11.52,0,0,0-4.78-4.6.05.05,0,0,0-.06.08,16.55,16.55,0,0,1,2.74,4.09,17,17,0,0,1,.88,2.38c0,.12.16.4.06.46s-.55-.22-.63-.25l-1.34-.53A3.7,3.7,0,0,1,55.59,79a9.91,9.91,0,0,1-.87-2.54c-.39-1.66-.57-3.36-1.07-5a8,8,0,0,0-2.53-4s-.1,0-.08.05a26.49,26.49,0,0,1,1.06,3.38,21.83,21.83,0,0,1,.31,3.7c.08,1.82.4,3.82,1.9,5l.06-.08a81.79,81.79,0,0,1-8-4.82s-.09,0-.07.06a4.47,4.47,0,0,0,1.82,2c.94.69,1.92,1.35,2.92,2a37.46,37.46,0,0,0,6.1,3c.91.35,2.29.59,2.82,1.52a2.48,2.48,0,0,1-.07,2c-.22.6-.46,1.2-.69,1.8l-.71,1.84c-.11.28-.23.56-.32.84,0-.09-.12.3-.06.29s-.19-.29-.15-.24a17.13,17.13,0,0,0-2.3-2.44,43.56,43.56,0,0,0-5.93-4.25,0,0,0,0,0-.07.06,10,10,0,0,0,2.71,3.53c1.28.93,2.8,1.47,3.74,2.81,0,0,.12,0,.09-.05Z"/></g></g></svg>