<svg xmlns="http://www.w3.org/2000/svg" viewBox="0 0 151.01 222.33"><defs><style>.cls-1{fill:#f03639;}.cls-1,.cls-3,.cls-5,.cls-6,.cls-7,.cls-8{stroke:#000;stroke-miterlimit:10;}.cls-2,.cls-7{fill:#fedcd0;}.cls-3,.cls-5,.cls-8{fill:none;}.cls-4{fill:#e5ff35;}.cls-5{stroke-width:0.75px;}.cls-8{stroke-width:0.25px;}</style></defs><g id="Layer_2" data-name="Layer 2"><g id="Layer_1-2" data-name="Layer 1"><path class="cls-1" d="M2.77,221.78l72.74-43,72.73,43a3.16,3.16,0,0,0,2.27-2.86V.5H.5V218.92A3.16,3.16,0,0,0,2.77,221.78Z"/><path class="cls-2" d="M93.1,65.91,87,78.36h-.17L82,62.09a.47.47,0,0,0-.9,0L76.38,78.36H74L68.45,64.14a4.55,4.55,0,1,0-2.8,0l-5.54,14.2H57.67L52.94,62.17a.47.47,0,0,0-.9,0L47.45,77.92,40.59,66.21a.46.46,0,0,0-.86.31L41.87,79.1V89.69H92.63V80h0L94,66.16A.46.46,0,0,0,93.1,65.91Z"/><path class="cls-3" d="M93.1,65.91,87,78.36h-.17L82,62.09a.47.47,0,0,0-.9,0L76.38,78.36H74L68.45,64.14a4.55,4.55,0,1,0-2.8,0l-5.54,14.2H57.67L52.94,62.17a.47.47,0,0,0-.9,0L47.45,77.92,40.59,66.21a.46.46,0,0,0-.86.31L41.87,79.1V89.69H92.63V80h0L94,66.16A.46.46,0,0,0,93.1,65.91Z"/><circle class="cls-4" cx="52.12" cy="84.52" r="2.52"/><circle class="cls-3" cx="52.12" cy="84.52" r="2.52"/><circle class="cls-4" cx="82.09" cy="84.29" r="2.52"/><circle class="cls-3" cx="82.09" cy="84.29" r="2.52"/><circle class="cls-4" cx="68.09" cy="84.29" r="2.52"/><circle class="cls-3" cx="68.09" cy="84.29" r="2.52"/><line class="cls-5" x1="83.44" y1="111.29" x2="43.06" y2="42.77"/><rect class="cls-6" x="80.26" y="106.63" width="3.24" height="4.31" transform="translate(-43.41 55.49) rotate(-29.99)"/><path class="cls-7" d="M84.29,138.29a85.16,85.16,0,0,1-4.87-14.07,17.89,17.89,0,0,1-.23-8.29,8.38,8.38,0,0,1,5.28-6c3.46-1.05,7.11.94,9.84,3.3a65.15,65.15,0,0,1,9.1,10.43l9.36,12.4a2.62,2.62,0,0,1,.62,1.23,2.67,2.67,0,0,1-1.16,2.08c-4.81,4.38-12.19,10.24-18.8,11.43C87.36,151.86,86.24,143,84.29,138.29Z"/><line class="cls-8" x1="90.56" y1="150.46" x2="80.26" y2="114.27"/><line class="cls-8" x1="95.38" y1="150.17" x2="80.97" y2="112.61"/><line class="cls-8" x1="99.76" y1="148.06" x2="81.55" y2="111.46"/><line class="cls-8" x1="104.21" y1="145.7" x2="82.39" y2="110.76"/><line class="cls-8" x1="107.59" y1="142.92" x2="83.14" y2="109.91"/><line class="cls-8" x1="111.28" y1="139.96" x2="84.35" y2="109.84"/><line class="cls-8" x1="111.21" y1="134.81" x2="85.95" y2="109.74"/><line class="cls-8" x1="100" y1="119.69" x2="89.1" y2="109.79"/><rect class="cls-6" x="40.9" y="40.25" width="3.24" height="4.31" transform="translate(-15.5 26.93) rotate(-29.99)"/><path class="cls-2" d="M71.29,88.11H69.58a.5.5,0,0,0-.5.5.51.51,0,0,0,.5.5h2a.51.51,0,0,0,.5-.5.51.51,0,0,0-.5-.5h-2.3a.5.5,0,0,0,0,1h2.3v-1h-2v1h1.71a.51.51,0,0,0,.5-.5.51.51,0,0,0-.5-.5Z"/><path class="cls-2" d="M71.24,88.18H69.32v1h2.56a.5.5,0,0,0,0-1H68.71a.5.5,0,0,0,0,1h3.1a.5.5,0,0,0,0-1H68.59a.5.5,0,0,0,0,1h3.9v-1H68a.5.5,0,0,0,0,1h4a.5.5,0,0,0,0-1H67.44v1h2.21a.5.5,0,0,0,0-1H67.44a.5.5,0,0,0,0,1H72v-1H68a.5.5,0,0,0,0,1h4.51a.5.5,0,0,0,0-1h-3.9a.5.5,0,0,0,0,1h3.22v-1h-3.1v1h3.17v-1H69.32a.5.5,0,0,0,0,1h1.92a.5.5,0,0,0,0-1Z"/><path class="cls-2" d="M69.56,88.39h.14l.22,0,.45,0c.31,0,.61,0,.92-.06a.5.5,0,0,0,0-1,16.71,16.71,0,0,0-2,.19.49.49,0,0,0-.3.23.5.5,0,0,0,0,.38.53.53,0,0,0,.23.3.59.59,0,0,0,.39,0Z"/><path class="cls-2" d="M69,88.2a1.37,1.37,0,0,0,.57,0A1.65,1.65,0,0,0,70,88c.24-.1.47-.22.7-.34a.48.48,0,0,0,.23-.29.49.49,0,0,0,0-.39.5.5,0,0,0-.3-.23.57.57,0,0,0-.38,0c-.25.12-.49.25-.74.36l.11,0a1.7,1.7,0,0,1-.32.1l.13,0h-.18l.13,0h-.07a.5.5,0,0,0-.62.35.51.51,0,0,0,.35.61Z"/><path class="cls-2" d="M69.59,87l-.65.65.71.7c.31-.32.63-.63,1-.94a.51.51,0,0,0,0-.7.49.49,0,0,0-.36-.15.53.53,0,0,0-.35.15c-.33.3-.65.61-1,.94a.51.51,0,0,0,0,.7.49.49,0,0,0,.36.15.51.51,0,0,0,.35-.15l.64-.64a.53.53,0,0,0,.15-.36.47.47,0,0,0-.15-.35.48.48,0,0,0-.7,0Z"/><path class="cls-2" d="M69,88.11a.79.79,0,0,0,.6-.11l.31-.15.61-.29a.53.53,0,0,0,.23-.3.59.59,0,0,0-.05-.39A.49.49,0,0,0,70,86.7l-.52.24-.51.25.12,0h0l.14,0h0l.14,0h0a.53.53,0,0,0-.39,0,.57.57,0,0,0-.23.3.52.52,0,0,0,.35.62Z"/></g></g></svg>