<svg xmlns="http://www.w3.org/2000/svg" viewBox="0 0 151.01 222.33"><defs><style>.cls-1{fill:#2a8fd7;}.cls-1,.cls-2,.cls-5{stroke:#000;stroke-miterlimit:10;}.cls-2{fill:#fedcd1;}.cls-3{font-size:17.5px;font-family:Roboto-Bold, Roboto;font-weight:700;}.cls-4{letter-spacing:0em;}.cls-5{fill:none;}</style></defs><g id="Layer_2" data-name="Layer 2"><g id="Layer_1-2" data-name="Layer 1"><path class="cls-1" d="M2.77,221.78l72.74-43,72.73,43a3.16,3.16,0,0,0,2.27-2.86V.5H.5V218.92A3.16,3.16,0,0,0,2.77,221.78Z"/><ellipse cx="74.76" cy="98.19" rx="40.08" ry="42.42" transform="translate(-5.25 4.23) rotate(-3.13)"/><ellipse class="cls-2" cx="72.24" cy="94.82" rx="40.08" ry="42.42" transform="translate(-5.07 4.09) rotate(-3.13)"/><text class="cls-3" transform="translate(43.9 100.85)">bu<tspan class="cls-4" x="19.9" y="0">tt</tspan><tspan x="32.27" y="0">on</tspan></text><path class="cls-5" d="M92.72,122l4.43-9.34"/><path class="cls-5" d="M96.64,124.17l10-2.61"/><path class="cls-5" d="M85.54,131.88l-4.44,9.34"/><path class="cls-5" d="M88.07,122.31l-4.31-9.41"/><path class="cls-5" d="M84.16,127.12l-10-2.75"/><path d="M97.6,150.11a.9.9,0,0,1-1.18-.48l-8-19.12a3.6,3.6,0,1,1,6.64-2.78l7.31,17.45a.91.91,0,0,1-1.67.7l-7.3-17.46a1.8,1.8,0,0,0-3.32,1.39l8,19.12A.91.91,0,0,1,97.6,150.11Z"/><path d="M106.88,144.27a.89.89,0,0,1-1.18-.48l-3.13-7.48a1.8,1.8,0,1,0-3.32,1.39.91.91,0,0,1-.49,1.18.89.89,0,0,1-1.17-.48,3.6,3.6,0,1,1,6.64-2.78l3.13,7.48A.88.88,0,0,1,106.88,144.27Z"/><path d="M111.87,142.19a.91.91,0,0,1-1.18-.49l-2.44-5.81a1.8,1.8,0,1,0-3.32,1.39.9.9,0,1,1-1.66.69,3.6,3.6,0,0,1,6.65-2.78l2.43,5.82A.9.9,0,0,1,111.87,142.19Z"/><path d="M117.16,159.51l-9.62,4a8.06,8.06,0,0,1-7.8-.85l-12.7-9,0,0a3.5,3.5,0,0,1-1.27-1.56,3.61,3.61,0,0,1,1.94-4.72,3.52,3.52,0,0,1,1.89-.24h0l7.76,1.2a.9.9,0,0,1-.27,1.78L89.4,149h-.07a1.77,1.77,0,0,0-1,.12,1.8,1.8,0,0,0-1,2.36,1.75,1.75,0,0,0,.58.75l0,0,12.74,9a6.26,6.26,0,0,0,6.06.67l9.62-4a6.31,6.31,0,0,0,3.39-8.25l-5.91-14.13a1.8,1.8,0,0,0-3.33,1.39.9.9,0,1,1-1.66.7,3.6,3.6,0,1,1,6.65-2.78l5.91,14.13a8.12,8.12,0,0,1-4.35,10.61Z"/></g></g></svg>