<svg xmlns="http://www.w3.org/2000/svg" viewBox="0 0 151.01 222.33"  xmlns:v="https://vecta.io/nano"><g stroke="#000" stroke-miterlimit="10"><path d="M2.77 221.78l72.74-43 72.73 43a3.16 3.16 0 0 0 2.27-2.86V.5H.5v218.42a3.16 3.16 0 0 0 2.27 2.86z" fill="#2b93dc"/><g fill="#cff4d2"><path d="M79,97.11c4.77-.35,9.54-1,14.31-1,2.92,0,7.23.82,10.31,0a30.08,30.08,0,0,0-59.34.54C55.75,98.36,67.43,98,79,97.11Z"/><path d="M78.82 97.11l10.64-.91c-1.2-14.18-7.75-25-15.65-25-8.18 0-14.92 11.65-15.76 26.61 6.95.19 13.87-.2 20.77-.7z"/></g><g fill="none"><path d="M74,96.35V71.17"/><path d="M47.91 86.15h51.96"/></g><g fill="#cff4d2"><path d="M98 105.3c-5.25 0-10.39.4-15.63.81-12.43 1-24.83 1.37-37.17-.32a30.08 30.08 0 0 0 59.6-.7 55.24 55.24 0 0 1-6.8.21z"/><path d="M82.37 106.11a223.16 223.16 0 0 1-23 .78c1.49 13.63 7.9 23.91 15.63 23.91 7.94 0 14.52-11 15.67-25.28-2.78.15-5.53.37-8.3.59z"/></g><g fill="none"><path d="M75,130.8V107.89"/><path d="M48.88 116.47h51.96"/></g></g><text transform="translate(33.52 109.4)" stroke="#000" stroke-miterlimit="10" fill="#cff4d2" font-size="34.22" stroke-width=".5" font-family="Lato-Black,Lato" font-weight="800">www</text><g stroke="#000"><ellipse cx="117.88" cy="144.46" rx="6.53" ry="11.33" fill="#cff4d2"/><path d="M112.06 140.87l11.91-.2m-6.14-.14l-.07-7.26" stroke-miterlimit="10" fill="none"/></g><path d="M72.76,131.75a49.14,49.14,0,0,0,20-.95,64.59,64.59,0,0,0,9.55-3.66c3.14-1.41,6.83-2.78,10.18-1.21a8.37,8.37,0,0,1,4.77,7.95c0,.65,1,.64,1,0a9.31,9.31,0,0,0-3.55-7.74c-2.77-2.19-6.24-2.26-9.49-1.22a43.7,43.7,0,0,0-4.8,2A52.94,52.94,0,0,1,95.18,129,43,43,0,0,1,85,131.19a52,52,0,0,1-12-.41c-.63-.09-.9.88-.26,1Z"/></svg>