<svg xmlns="http://www.w3.org/2000/svg" viewBox="0 0 151.01 222.33"  xmlns:v="https://vecta.io/nano"><style><![CDATA[.E{stroke:#ffd1dc}.F{fill:#3e1484}.G{stroke-miterlimit:10}]]></style><path d="M2.77 221.78l72.74-43 72.73 43a3.16 3.16 0 0 0 2.27-2.86V.5H.5v218.42a3.16 3.16 0 0 0 2.27 2.86z" stroke="#000" class="F G"/><circle cx="49.94" cy="110.62" r="30.27" fill="none" class="E"/><path d="M65.65 116.42h28.31v25.51H65.65z" class="F"/><path d="M48.82 109.06l-8.69-10.69m10.65 13.03l26.03-5.28" fill="none" class="E G"/><circle cx="50.14" cy="110.79" r="2.17" class="E F"/><g fill="none" class="G E"><path d="M39.93 103.49l.2-5.12"/><path d="M39.99 98.57l5 1.12m27.39 3.7l4.32 2.77m.11-.04l-3.47 3.77m-8.11 26.86c2.58-1.93 16.78-12.12 32.84-5.41m-.18-.06c3 1.17 19.42 7.17 33.08-3.6m-54.46-1.51c1.63-1.17 10.62-7.36 21.16-3.13m-.12-.04c2 .73 12.73 4.53 21.36-2"/><path d="M117.15 122.18c2.09-1.2 6.73-4.75 3.91-7-1.17-.94-3.54-1-3.78.67s2.86 2.14 3 .36m-46.65 13.31c2.08-1 13.5-6.53 25.18-2.09m-.13-.04c2.19.78 14.19 4.82 25.24-1m-2.05.96c6.91-2.93 10.28-7.69 9.31-10.55-.56-1.67-2.65-3.59-4.49-3.15a3.13 3.13 0 0 0-2.31 3.45 2.57 2.57 0 0 0 2.61 2c1.24-.15 2.35-1.44 2-2.53s-1.6-1.29-1.66-1.3"/><path d="M107.82,124.74c2.55,0,8.85-.81,8.12-4.67-.31-1.61-2.19-3.08-3.58-1.53s.85,3.78,2.25,2.12"/></g></svg>