<svg xmlns="http://www.w3.org/2000/svg" viewBox="0 0 151.01 222.33"><defs><style>.cls-1{fill:#f23c3b;}.cls-1,.cls-2,.cls-4,.cls-5{stroke:#000;stroke-miterlimit:10;}.cls-2{fill:#29abe2;}.cls-3{fill:#006837;}.cls-4{fill:#fff;}.cls-5{fill:#fedcd0;}</style></defs><g id="Layer_2" data-name="Layer 2"><g id="Layer_1-2" data-name="Layer 1"><path class="cls-1" d="M2.77,221.78l72.74-43,72.73,43a3.16,3.16,0,0,0,2.27-2.86V.5H.5V218.92A3.16,3.16,0,0,0,2.77,221.78Z"/><ellipse class="cls-2" cx="103.05" cy="73.13" rx="15.98" ry="14.81" transform="matrix(1, -0.03, 0.03, 1, -2.38, 3.47)"/><path class="cls-3" d="M94.58,63.57A2.44,2.44,0,0,0,96.75,65c.9,0,1.82-.44,2.67-.15.49.18.87.6,1.39.72,1,.24,1.81-.61,2.76-.9a3.41,3.41,0,0,1,3.12.78,8.52,8.52,0,0,1,1.89,2.6l-5.12.58A3,3,0,0,0,102,69c-1,.74-.67,2.45-1.71,3.17-.49.33-1.16.35-1.68.63-1.54.83-1.08,3.36-2.61,4.19-1.19.65-2.74-.27-3.3-1.44a17.6,17.6,0,0,1-.8-3.76,4.7,4.7,0,0,1-.24-1.61c.06-.51.35-1,.38-1.51,0-1.09-1-1.92-1.33-3C90,63.38,93.26,60.55,94.58,63.57Z"/><path class="cls-3" d="M110.5,82c.45-.94-.28-2-1-2.74s-1.55-1.68-1.3-2.67c.51-2,4.58-1.65,5.11-3.68.23-.88-.39-1.79-.19-2.68a2.13,2.13,0,0,1,2.19-1.44,3.4,3.4,0,0,1,2.43,1.32c1.73,2.14,1,5.17,0,7.69a17.38,17.38,0,0,1-2.72,5c-1.19,1.41-5.17,4.64-7.42,4C104.65,85.82,110.12,82.77,110.5,82Z"/><path class="cls-3" d="M104.7,69.42c1-.13,2-.17,2.51-.31.35.35.16.92,0,1.37l-.89,2a1.69,1.69,0,0,1-.61.83,1.56,1.56,0,0,1-1.39-.12c-.8-.39-2.14-1.27-2.14-2.25S103.39,69.6,104.7,69.42Z"/><path class="cls-3" d="M97.69,80.59a1.79,1.79,0,0,1-.14-1.87,4.07,4.07,0,0,1,3.06-1.32,3.18,3.18,0,0,1,1.6.22.53.53,0,0,1,.26.51,8.87,8.87,0,0,1-.89,2.4c-.15.41.37,2-.12,2.27C99.36,84,98,81.11,97.69,80.59Z"/><ellipse class="cls-3" cx="108.21" cy="81.34" rx="1.54" ry="1.56" transform="matrix(1, -0.09, 0.09, 1, -7.03, 10.31)"/><path class="cls-4" d="M102.65,47.54a18.81,18.81,0,0,1,2.48,3.78c.26.52.47,1.2.07,1.64a1.73,1.73,0,0,1-.8.4l-7.28,2.11a30,30,0,0,1,2,5.39c.21.79.31,1.79-.38,2.25a2.29,2.29,0,0,1-1.19.27l-6.79.25L94.21,68c.35.46.73,1,.47,1.56a1.72,1.72,0,0,1-1.19.67L86.17,72l3.37,4c.43.53.86,1.34.34,1.79a1.48,1.48,0,0,1-1.06.23,31.83,31.83,0,0,0-7.16.6c-.31.07-.69.19-.75.49a.79.79,0,0,0,.13.49l3.09,6-6.32.56a11.15,11.15,0,0,1,2.51,3.59c-1.93,0-3.87.11-5.51-.57,1-6.52,9.28-14.86,13.09-20.44Q95.19,58.1,102.65,47.54Z"/><path class="cls-4" d="M73.94,90.06A17.17,17.17,0,0,1,75.44,86c.26-.5.67-1.07,1.27-1a1.78,1.78,0,0,1,.81.35l6.19,4.13a30.29,30.29,0,0,1,3.07-4.72c.5-.62,1.24-1.29,2-1.06a2.26,2.26,0,0,1,1,.73l4.39,4.87,1.39-5.13c.14-.54.38-1.16,1-1.27a1.73,1.73,0,0,1,1.27.47l5.94,4.37,1.17-4.91c.15-.64.54-1.43,1.22-1.32a1.45,1.45,0,0,1,.84.65,30.06,30.06,0,0,0,4.9,4.93c.25.2.58.4.86.27a.89.89,0,0,0,.31-.38L115.92,81l4.35,4.34a10.13,10.13,0,0,1,1.33-4c1.16,1.45,2.47,2.79,2.94,4.42-5.87,3.11-17.65,2-24.47,2.5Q87,89.29,73.94,90.06Z"/><path class="cls-5" d="M125.65,85.09c1.69,24.13-13,46.66-36.21,53.1C62.75,145.58,34.9,129,27.21,101.07S34.9,44.58,61.59,37.19a49.21,49.21,0,0,1,42.27,8l-29.31,44Z"/><ellipse cx="84.89" cy="49.8" rx="2.7" ry="3.13" transform="translate(-2.39 4.32) rotate(-2.88)"/></g></g></svg>