<svg xmlns="http://www.w3.org/2000/svg" viewBox="0 0 151.01 222.33">
<defs>
    <style type="text/css">@import url('https://fonts.googleapis.com/css?family=Lato');</style>
</defs>
<defs><style>.cls-1{fill:#f03639;stroke:#000;stroke-miterlimit:10;}.cls-2{font-size:23px;}.cls-2,.cls-8{fill:#fedcd0;font-family:Lato-Bold, Lato;font-weight:700;}.cls-3{letter-spacing:-0.01em;}.cls-4{letter-spacing:-0.04em;}.cls-5{letter-spacing:-0.02em;}.cls-6{font-size:30px;}.cls-7{letter-spacing:-0.02em;}.cls-8{font-size:10px;}.cls-9{letter-spacing:-0.01em;}.cls-10{letter-spacing:0em;}.cls-11{letter-spacing:-0.01em;}.cls-12{letter-spacing:-0.02em;}.cls-13{letter-spacing:-0.01em;}.cls-14{letter-spacing:-0.01em;}.cls-15{letter-spacing:0em;}.cls-16{letter-spacing:-0.02em;}</style></defs><g id="Layer_2" data-name="Layer 2"><g id="Layer_1-2" data-name="Layer 1"><path class="cls-1" d="M2.77,221.78l72.74-43,72.73,43a3.16,3.16,0,0,0,2.27-2.86V.5H.5V218.92A3.16,3.16,0,0,0,2.77,221.78Z"/><text class="cls-2" transform="translate(24.64 76.39)"><tspan class="cls-3">P</tspan><tspan x="14.05" y="0">ride </tspan><tspan class="cls-4" x="59.4" y="0">F</tspan><tspan x="71.38" y="0">o</tspan><tspan class="cls-5" x="84.59" y="0">r</tspan><tspan class="cls-6"><tspan x="0" y="36">Labou</tspan><tspan class="cls-7" x="81.99" y="36">r</tspan></tspan></text><text class="cls-8" transform="translate(24.64 133.42)"><tspan class="cls-9">c<tspan class="cls-10" x="4.73" y="0">o-</tspan><tspan class="cls-11" x="14.21" y="0">f</tspan><tspan class="cls-10" x="17.66" y="0">ounde</tspan><tspan class="cls-12" x="45.69" y="0">r</tspan></tspan><tspan x="0" y="14.4">social e</tspan><tspan class="cls-13" x="32.83" y="14.4">n</tspan><tspan x="38.4" y="14.4">t</tspan><tspan class="cls-14" x="42.12" y="14.4">r</tspan><tspan class="cls-15" x="45.7" y="14.4">ep</tspan><tspan class="cls-14" x="56.72" y="14.4">r</tspan><tspan x="60.31" y="14.4">eneu</tspan><tspan class="cls-16" x="82.27" y="14.4">r</tspan></text><text class="cls-8" transform="translate(24.64 48.22)">2016-2019</text></g></g></svg>