<svg xmlns="http://www.w3.org/2000/svg" viewBox="0 0 151.01 222.33">
<defs>
    <style type="text/css">@import url('https://fonts.googleapis.com/css?family=Lato');</style>
</defs>
<defs><style>.cls-1{fill:#c4242b;stroke:#000;stroke-miterlimit:10;}.cls-2{font-size:17px;}.cls-2,.cls-9{fill:#fff;font-family:Lato-Bold, Lato;font-weight:700;}.cls-3{letter-spacing:-0.01em;}.cls-4{letter-spacing:-0.01em;}.cls-5{letter-spacing:0em;}.cls-6{letter-spacing:-0.01em;}.cls-7{letter-spacing:-0.01em;}.cls-8{letter-spacing:-0.02em;}.cls-9{font-size:10px;}.cls-10{letter-spacing:-0.01em;}.cls-11{letter-spacing:-0.01em;}.cls-12{letter-spacing:-0.01em;}.cls-13{letter-spacing:-0.01em;}.cls-14{letter-spacing:-0.01em;}.cls-15{letter-spacing:0em;}.cls-16{letter-spacing:0em;}</style></defs><g id="Layer_2" data-name="Layer 2"><g id="Layer_1-2" data-name="Layer 1"><path class="cls-1" d="M2.77,221.78l72.74-43,72.73,43a3.16,3.16,0,0,0,2.27-2.86V.5H.5V218.92A3.16,3.16,0,0,0,2.77,221.78Z"/><text class="cls-2" transform="translate(22.3 110.39)"><tspan class="cls-3">B</tspan><tspan x="11.08" y="0">ook</tspan><tspan class="cls-4" x="39.69" y="0">M</tspan><tspan class="cls-5" x="55.58" y="0">y</tspan><tspan class="cls-6" x="64.51" y="0">S</tspan><tspan x="73.71" y="0">h</tspan><tspan class="cls-7" x="83.3" y="0">o</tspan><tspan class="cls-8" x="92.92" y="0">w</tspan></text><text class="cls-9" transform="translate(22.3 131.42)">s<tspan class="cls-10" x="4.39" y="0">o</tspan><tspan x="10.01" y="0">ft</tspan><tspan class="cls-11" x="17.09" y="0">w</tspan><tspan x="25.05" y="0">a</tspan><tspan class="cls-12" x="30.13" y="0">r</tspan><tspan x="33.71" y="0">e anal</tspan><tspan class="cls-13" x="59.75" y="0">y</tspan><tspan x="64.92" y="0">st i</tspan><tspan class="cls-14" x="78.01" y="0">n</tspan><tspan class="cls-15" x="83.58" y="0">t</tspan><tspan class="cls-16" x="87.26" y="0">ern</tspan></text><text class="cls-9" transform="translate(22.3 82.22)">2018</text></g></g></svg>