<svg xmlns="http://www.w3.org/2000/svg" viewBox="0 0 151.01 222.33"  stroke="#000" xmlns:v="https://vecta.io/nano"><path d="M2.77 221.78l72.74-43 72.73 43a3.16 3.16 0 0 0 2.27-2.86V.5H.5v218.42a3.16 3.16 0 0 0 2.27 2.86z" fill="#298fd9" stroke-miterlimit="10"/><g stroke-width=".5"><circle cx="75.51" cy="102.21" r="46.56" fill="#fedcd0"/><g fill="#298fd9" stroke-miterlimit="10"><path d="M50.2 121.4a2.56 2.56 0 0 1-.34.26v6.48h9.07v-15.46c-2.39 3.32-5.79 6.03-8.73 8.72zm20.8-8.63l-6-6q-1.24 1.2-2.52 2.37v19.2h10v-14.59a4.31 4.31 0 0 1-1.48-.98zm6.66-1.31l8.09-8.77h.41v25.67h-10v-15.84a4.47 4.47 0 0 0 1.5-1.06zm11.93-11.61v28.29h9.07V90.89l-9.07 8.96zm-22.3-2.6l-1.37-1.7-21.81 21.85 1.37 1.7 21.81-21.85zm13.82-.47l-7.63 7.65 1.37 1.7 7.77-7.79-1.51-1.56z"/><path d="M87.49 93.46l9.17-9.18-1.38-1.7L86 91.9l1.49 1.56zM74.5 106.28l1.66-1.41-10.11-9.1-1.67 1.4 10.12 9.11z"/><path d="M103.08 75.23l-12.24 3.84 9.45 8.68 2.79-12.52z"/></g></g></svg>