<svg xmlns="http://www.w3.org/2000/svg" viewBox="0 0 151.01 222.33"><defs><style>.cls-1{fill:#2b93dc;}.cls-1,.cls-2,.cls-3,.cls-4{stroke:#000;stroke-miterlimit:10;}.cls-2,.cls-4{fill:#cff4d2;}.cls-3{fill:none;}.cls-4{font-size:34.22px;stroke-width:0.5px;font-family:Lato-Black, Lato;font-weight:800;}</style></defs><g id="Layer_2" data-name="Layer 2"><g id="Layer_1-2" data-name="Layer 1"><path class="cls-1" d="M2.77,221.78l72.74-43,72.73,43a3.16,3.16,0,0,0,2.27-2.86V.5H.5V218.92A3.16,3.16,0,0,0,2.77,221.78Z"/><path class="cls-2" d="M79,97.11c4.77-.35,9.54-1,14.31-1,2.92,0,7.23.82,10.31,0a30.08,30.08,0,0,0-59.34.54C55.75,98.36,67.43,98,79,97.11Z"/><path class="cls-2" d="M78.82,97.11c3.54-.26,7.09-.69,10.64-.91-1.2-14.18-7.75-25-15.65-25-8.18,0-14.92,11.65-15.76,26.61C65,98,71.92,97.61,78.82,97.11Z"/><path class="cls-3" d="M74,96.35V71.17"/><line class="cls-3" x1="47.91" y1="86.15" x2="99.87" y2="86.15"/><path class="cls-2" d="M98,105.3c-5.25,0-10.39.4-15.63.81-12.43,1-24.83,1.37-37.17-.32a30.08,30.08,0,0,0,59.6-.7A55.24,55.24,0,0,1,98,105.3Z"/><path class="cls-2" d="M82.37,106.11a223.16,223.16,0,0,1-23,.78C60.86,120.52,67.27,130.8,75,130.8c7.94,0,14.52-11,15.67-25.28C87.89,105.67,85.14,105.89,82.37,106.11Z"/><path class="cls-3" d="M75,130.8V107.89"/><line class="cls-3" x1="48.88" y1="116.47" x2="100.84" y2="116.47"/><text class="cls-4" transform="translate(33.52 109.4)">www</text><ellipse class="cls-2" cx="117.88" cy="144.46" rx="6.53" ry="11.33"/><line class="cls-3" x1="112.06" y1="140.87" x2="123.97" y2="140.67"/><line class="cls-3" x1="117.83" y1="140.53" x2="117.76" y2="133.27"/><path d="M72.76,131.75a49.14,49.14,0,0,0,20-.95,64.59,64.59,0,0,0,9.55-3.66c3.14-1.41,6.83-2.78,10.18-1.21a8.37,8.37,0,0,1,4.77,7.95c0,.65,1,.64,1,0a9.31,9.31,0,0,0-3.55-7.74c-2.77-2.19-6.24-2.26-9.49-1.22a43.7,43.7,0,0,0-4.8,2A52.94,52.94,0,0,1,95.18,129,43,43,0,0,1,85,131.19a52,52,0,0,1-12-.41c-.63-.09-.9.88-.26,1Z"/></g></g></svg>