<svg xmlns="http://www.w3.org/2000/svg" viewBox="0 0 151.01 222.33"  xmlns:v="https://vecta.io/nano"><g stroke="#000" stroke-miterlimit="10"><path d="M2.77 221.78l72.74-43 72.73 43a3.16 3.16 0 0 0 2.27-2.86V.5H.5v218.42a3.16 3.16 0 0 0 2.27 2.86z" fill="#29456c"/><path d="M120.7 98.6a.45.45 0 0 0-.08-.26.41.41 0 0 0-.26-.13 22 22 0 0 0-4.06-.61 22.4 22.4 0 0 0-2.3-8.11 17.87 17.87 0 0 0 3-2.38.75.75 0 0 0 .21-.29.71.71 0 0 0-.12-.5 22 22 0 0 0-6.76-7.67.51.51 0 0 0-.25-.11.47.47 0 0 0-.27.12 22.53 22.53 0 0 0-3 2.52 22.33 22.33 0 0 0-11.55-4 18.22 18.22 0 0 0-.4-3 .58.58 0 0 0-.13-.32.68.68 0 0 0-.48-.18 21.82 21.82 0 0 0-10.1 1.59.61.61 0 0 0-.23.15.54.54 0 0 0 0 .28 25.22 25.22 0 0 0 .46 3.58 22.4 22.4 0 0 0-6 4.16 17.55 17.55 0 0 0-2.65-1.82.75.75 0 0 0-.36-.13.72.72 0 0 0-.48.26 23.4 23.4 0 0 0-6 9.17.49.49 0 0 0 0 .29.48.48 0 0 0 .19.23 22.65 22.65 0 0 0 3.17 2.19 22.44 22.44 0 0 0-.84 6.12 24.2 24.2 0 0 0 .17 2.84 18.62 18.62 0 0 0-3.58 1.14.85.85 0 0 0-.31.21.77.77 0 0 0-.07.54 23 23 0 0 0 3.89 10.06.45.45 0 0 0 .21.2.51.51 0 0 0 .3 0 23.47 23.47 0 0 0 3.79-1.36 22.51 22.51 0 0 0 5.47 5.15 17.7 17.7 0 0 0-1.35 3.13.74.74 0 0 0-.05.36.75.75 0 0 0 .35.4 22.88 22.88 0 0 0 10 3.69.45.45 0 0 0 .28 0 .48.48 0 0 0 .19-.23 23.56 23.56 0 0 0 1.52-3.59h1.59a22.34 22.34 0 0 0 7.48-1.27 18.48 18.48 0 0 0 1.88 3.06.75.75 0 0 0 .28.25.69.69 0 0 0 .54 0 23 23 0 0 0 9.06-6 .47.47 0 0 0 .15-.24.49.49 0 0 0-.08-.3 24 24 0 0 0-2.15-3.39 22.83 22.83 0 0 0 3.59-5.76 18.09 18.09 0 0 0 3.74.66.73.73 0 0 0 .36 0 .74.74 0 0 0 .32-.43 22.23 22.23 0 0 0 1.72-10.27zM94 114.56a14.84 14.84 0 1 1 14.8-14.84A14.84 14.84 0 0 1 94 114.56zm-14.9 8.92a.2.2 0 0 0 0-.11.16.16 0 0 0-.1-.05 10.65 10.65 0 0 0-1.6-.24 8.94 8.94 0 0 0-.92-3.18 7 7 0 0 0 1.16-.94.28.28 0 0 0 .08-.11v-.2a8.71 8.71 0 0 0-2.65-3 .16.16 0 0 0-.21 0 8.58 8.58 0 0 0-1.17 1 8.82 8.82 0 0 0-4.54-1.58 6.81 6.81 0 0 0-.16-1.19.24.24 0 0 0 0-.13.24.24 0 0 0-.19-.06 8.52 8.52 0 0 0-4 .62.15.15 0 0 0-.09.06.11.11 0 0 0 0 .11 8.5 8.5 0 0 0 .18 1.41 8.68 8.68 0 0 0-2.38 1.63 7.41 7.41 0 0 0-1-.72.39.39 0 0 0-.14-.05.29.29 0 0 0-.19.11 9.17 9.17 0 0 0-2.34 3.6.15.15 0 0 0 0 .11.14.14 0 0 0 .08.09 8.84 8.84 0 0 0 1.24.86 9 9 0 0 0-.33 2.41 8.07 8.07 0 0 0 .07 1.11 7.46 7.46 0 0 0-1.33.46.27.27 0 0 0-.12.09.26.26 0 0 0 0 .21 9 9 0 0 0 1.53 4s0 .07.08.08a.25.25 0 0 0 .12 0 9.47 9.47 0 0 0 1.49-.53 8.75 8.75 0 0 0 2.14 2 7 7 0 0 0-.52 1.23.39.39 0 0 0 0 .14.31.31 0 0 0 .14.16 9 9 0 0 0 3.93 1.45h.11c.03 0 .05-.05.07-.09a9.63 9.63 0 0 0 .6-1.41h.63a8.73 8.73 0 0 0 2.94-.5 7 7 0 0 0 .73 1.2.35.35 0 0 0 .11.1.26.26 0 0 0 .21 0 8.89 8.89 0 0 0 3.56-2.34.11.11 0 0 0 .06-.09.18.18 0 0 0 0-.12 8.76 8.76 0 0 0-.84-1.33 9.29 9.29 0 0 0 1.41-2.27 7.19 7.19 0 0 0 1.47.27.24.24 0 0 0 .27-.18 8.75 8.75 0 0 0 .41-4.09zm-10.51 6.27a5.83 5.83 0 1 1 5.84-5.83 5.83 5.83 0 0 1-5.84 5.83zm-7.24-46.34a.33.33 0 0 0-.16 0 .29.29 0 0 0-.15.09 13.6 13.6 0 0 0-1.67 1.88 14 14 0 0 0-4.95-1.51 11.23 11.23 0 0 0-.22-2.31.52.52 0 0 0-.09-.2.43.43 0 0 0-.29-.1 13.34 13.34 0 0 0-6.19.9.23.23 0 0 0-.14.09.2.2 0 0 0 0 .17 13.58 13.58 0 0 0 .29 2.38 13.71 13.71 0 0 0-5.92 4.58 10.81 10.81 0 0 0-1.68-.81.33.33 0 0 0-.46.15 13.4 13.4 0 0 0-2.57 5.71.22.22 0 0 0 0 .16.23.23 0 0 0 .12.12 13.49 13.49 0 0 0 2 1 13.86 13.86 0 0 0 .11 4.5 10.72 10.72 0 0 0-1.82.75.34.34 0 0 0-.19.14.46.46 0 0 0 0 .33 14.34 14.34 0 0 0 2.63 6.03.32.32 0 0 0 .14.12.29.29 0 0 0 .18 0 14.24 14.24 0 0 0 2.18-.89 13.92 13.92 0 0 0 2.85 2.48 14.38 14.38 0 0 0 1.52.86 11.09 11.09 0 0 0-.54 2.13.45.45 0 0 0 0 .23.48.48 0 0 0 .25.21 14.16 14.16 0 0 0 6.49 1.4.26.26 0 0 0 .17 0 .25.25 0 0 0 .09-.16 13.86 13.86 0 0 0 .57-2.39 13.74 13.74 0 0 0 4.47-1.08 11.12 11.12 0 0 0 1.16 1.63.41.41 0 0 0 .17.15.46.46 0 0 0 .32 0 13.91 13.91 0 0 0 5.23-3.89.28.28 0 0 0 .08-.15.29.29 0 0 0 0-.18 14.88 14.88 0 0 0-1.33-2l.56-.8a13.83 13.83 0 0 0 1.85-4.26 10.68 10.68 0 0 0 2.19.06.4.4 0 0 0 .22 0 .49.49 0 0 0 .16-.3 14.15 14.15 0 0 0 0-6.63.29.29 0 0 0-.07-.16.28.28 0 0 0-.18-.06 14.44 14.44 0 0 0-2.46 0 14.05 14.05 0 0 0-1.75-3.77A11.09 11.09 0 0 0 66 88.23a.38.38 0 0 0 .1-.2.42.42 0 0 0-.11-.31 13.6 13.6 0 0 0-4.64-4.31zm-.77 19a9.08 9.08 0 1 1-2.64-12.58 9.08 9.08 0 0 1 2.64 12.63zm-13.03 42.91l4-22.95a5.53 5.53 0 0 0 2.67-7.72 4.94 4.94 0 0 1-.13 1.94 4.46 4.46 0 1 1-8.59-2.31 4.73 4.73 0 0 1 .66-1.46 5.52 5.52 0 0 0-1.3 7.65 5.66 5.66 0 0 0 1.14 1.17l-4 22.71a2.8 2.8 0 0 0 2.28 3.25h0a2.8 2.8 0 0 0 3.27-2.28zm-4 .48a1.31 1.31 0 1 1 1.82.32 1.31 1.31 0 0 1-1.8-.32z" fill="#fe9b71" stroke-width=".5"/></g><path d="M31.31 95.43c0-6.9 4.19-12.49 9.37-12.49m-10.42 4.49c0-2.89 1.75-5.23 3.92-5.23m86.48 32.53c-1 6.82-6 11.72-11.14 10.94m10.98-2.87c-.43 2.85-2.52 4.9-4.66 4.58" stroke-miterlimit="10" stroke-width=".5" fill="none" stroke="#fe9b71"/></svg>