<svg xmlns="http://www.w3.org/2000/svg" viewBox="0 0 151.01 267.51"><defs><style>.cls-1{fill:#f23c3b;}.cls-1,.cls-2,.cls-4,.cls-5{stroke:#000;stroke-miterlimit:10;}.cls-2{fill:#29abe2;}.cls-3{fill:#006837;}.cls-4{fill:#fff;}.cls-5{fill:#fedcd0;}</style></defs><g id="Layer_2" data-name="Layer 2"><g id="Layer_1-2" data-name="Layer 1"><path class="cls-1" d="M2.77,266.94l72.74-51.78,72.73,51.78a3.75,3.75,0,0,0,2.27-3.44V.5H.5v263A3.75,3.75,0,0,0,2.77,266.94Z"/><ellipse class="cls-2" cx="112.99" cy="89.46" rx="19.67" ry="18.23" transform="translate(-2.91 3.81) rotate(-1.91)"/><path class="cls-3" d="M102.57,77.7a3,3,0,0,0,2.67,1.7c1.11,0,2.25-.55,3.28-.18.62.21,1.08.72,1.71.88,1.19.29,2.24-.75,3.4-1.11a4.23,4.23,0,0,1,3.84,1,10.35,10.35,0,0,1,2.32,3.2l-6.29.72a3.75,3.75,0,0,0-1.82.53c-1.25.92-.83,3-2.11,3.9a19.63,19.63,0,0,1-2.07.78c-1.89,1-1.32,4.13-3.21,5.16-1.46.8-3.37-.34-4.06-1.77s-.62-3.09-1-4.63a5.92,5.92,0,0,1-.3-2c.08-.64.44-1.22.47-1.86.07-1.34-1.27-2.37-1.63-3.66C97,77.46,100.94,74,102.57,77.7Z"/><path class="cls-3" d="M122.16,100.35c.55-1.16-.34-2.43-1.24-3.37s-1.91-2.07-1.6-3.29c.63-2.5,5.63-2,6.28-4.52.28-1.08-.48-2.21-.23-3.3a2.62,2.62,0,0,1,2.69-1.77,4.15,4.15,0,0,1,3,1.62c2.13,2.63,1.24,6.36,0,9.47a21.61,21.61,0,0,1-3.35,6.14c-1.46,1.74-6.37,5.72-9.13,4.87C115,105.07,121.69,101.32,122.16,100.35Z"/><path class="cls-3" d="M115,84.9c1.22-.17,2.47-.21,3.1-.39.42.44.19,1.14-.05,1.69L117,88.67a2,2,0,0,1-.75,1,1.93,1.93,0,0,1-1.71-.14c-1-.48-2.63-1.57-2.64-2.77S113.41,85.11,115,84.9Z"/><path class="cls-3" d="M106.4,98.64a2.2,2.2,0,0,1-.18-2.3A5.05,5.05,0,0,1,110,94.71a3.76,3.76,0,0,1,2,.28.65.65,0,0,1,.32.63c0,1-.75,2-1.1,2.94-.18.51.46,2.46-.15,2.8C108.46,102.81,106.72,99.28,106.4,98.64Z"/><ellipse class="cls-3" cx="119.34" cy="99.56" rx="1.89" ry="1.92" transform="translate(-8.66 11.41) rotate(-5.28)"/><path class="cls-4" d="M112.5,58a23.31,23.31,0,0,1,3,4.65c.32.65.58,1.48.09,2a2.06,2.06,0,0,1-1,.49l-9,2.6a36.9,36.9,0,0,1,2.49,6.64c.26,1,.39,2.19-.47,2.77a2.66,2.66,0,0,1-1.46.32l-8.35.32,4.2,5.36c.44.56.9,1.28.58,1.91a2.1,2.1,0,0,1-1.45.83l-9,2.17,4.15,5c.53.65,1.06,1.65.42,2.21a1.94,1.94,0,0,1-1.31.28,38.77,38.77,0,0,0-8.8.74c-.39.07-.85.23-.93.6a1,1,0,0,0,.16.6l3.8,7.4-7.77.68A13.51,13.51,0,0,1,85,110c-2.37,0-4.75.13-6.78-.71,1.29-8,11.43-18.28,16.11-25.14Q103.32,71,112.5,58Z"/><path class="cls-4" d="M77.17,110.29a21.27,21.27,0,0,1,1.85-5c.32-.62.83-1.31,1.56-1.27a2,2,0,0,1,1,.44l7.62,5.08A35.49,35.49,0,0,1,93,103.7c.61-.77,1.52-1.59,2.51-1.3a2.6,2.6,0,0,1,1.16.89l5.41,6,1.7-6.31c.18-.66.48-1.43,1.18-1.57a2.12,2.12,0,0,1,1.56.59l7.31,5.37,1.43-6c.19-.78.67-1.76,1.51-1.63a1.85,1.85,0,0,1,1,.8,36.89,36.89,0,0,0,6,6.08c.3.24.71.49,1,.32a1,1,0,0,0,.39-.47l3.58-7.23,5.35,5.34a12.69,12.69,0,0,1,1.64-4.91c1.42,1.78,3,3.44,3.62,5.44-7.23,3.83-21.72,2.45-30.11,3.07Q93.27,109.33,77.17,110.29Z"/><path class="cls-5" d="M140.8,104.18c2.08,29.68-16,57.41-44.55,65.33-32.84,9.09-67.11-11.36-76.57-45.67s9.47-69.5,42.3-78.6a60.53,60.53,0,0,1,52,9.85l-36.06,54.1Z"/><ellipse cx="90.65" cy="60.76" rx="3.32" ry="3.85" transform="translate(-2.93 4.62) rotate(-2.88)"/></g></g></svg>