<svg xmlns="http://www.w3.org/2000/svg" viewBox="0 0 151.01 222.33"><defs><style>.cls-1,.cls-5{fill:#2590d6;}.cls-1,.cls-3,.cls-4{stroke:#000;}.cls-1,.cls-2,.cls-3,.cls-4{stroke-miterlimit:10;}.cls-2{fill:none;stroke:#cff4d2;stroke-width:0.25px;}.cls-3,.cls-4{fill:#cff4d2;}.cls-3{stroke-width:0.5px;}.cls-4{stroke-width:0.13px;}</style></defs><g id="Layer_2" data-name="Layer 2"><g id="Layer_1-2" data-name="Layer 1"><path class="cls-1" d="M2.77,221.78l72.74-43,72.73,43a3.16,3.16,0,0,0,2.27-2.86V.5H.5V218.92A3.16,3.16,0,0,0,2.77,221.78Z"/><path class="cls-2" d="M98.66,91.48,81.09,92.57C83.86,92.84,95.93,92,98.66,91.48Z"/><path class="cls-2" d="M89.27,97a12.73,12.73,0,0,1,6.94-.61"/><path class="cls-2" d="M52.33,126.47l.44-14.69A110.73,110.73,0,0,0,52.33,126.47Z"/><path class="cls-2" d="M55.82,124.85a10.51,10.51,0,0,1-.51-5.79"/><rect class="cls-3" x="75.56" y="73.07" width="30.11" height="2.09" transform="translate(150.42 174.75) rotate(-160)"/><rect class="cls-3" x="47.21" y="73.09" width="30.11" height="2.09" transform="translate(-21.6 25.77) rotate(-20)"/><path class="cls-3" d="M37.51,77.91v61.52h76V77.91Zm68.25,55.24H44.52v-49h61.24Z"/><path class="cls-4" d="M44.06,83.86V134h62.13V83.86Zm55.79,45H49.79V89H99.85Z"/><circle class="cls-3" cx="76.53" cy="69.01" r="2.47"/><path class="cls-5" d="M76.53,68.87"/><path class="cls-5" d="M76.53,70.37a1.5,1.5,0,0,0,0-3,1.5,1.5,0,0,0,0,3Z"/></g></g></svg>