<svg xmlns="http://www.w3.org/2000/svg" viewBox="0 0 151.01 222.33"><defs><style>.cls-1{fill:#da291c;stroke:#000;stroke-miterlimit:10;}.cls-2{font-size:19px;}.cls-2,.cls-7{fill:#fc0;font-family:Lato-Bold, Lato;font-weight:700;}.cls-3{letter-spacing:-0.02em;}.cls-4{letter-spacing:0em;}.cls-5{letter-spacing:-0.01em;}.cls-6{letter-spacing:-0.02em;}.cls-7{font-size:10px;}.cls-8{letter-spacing:-0.01em;}.cls-9{letter-spacing:-0.01em;}.cls-10{letter-spacing:-0.02em;}.cls-11{letter-spacing:-0.01em;}.cls-12{letter-spacing:-0.01em;}.cls-13{letter-spacing:0em;}</style></defs><g id="Layer_2" data-name="Layer 2"><g id="Layer_1-2" data-name="Layer 1"><path class="cls-1" d="M2.77,221.78l72.74-43,72.73,43a3.16,3.16,0,0,0,2.27-2.86V.5H.5V218.92A3.16,3.16,0,0,0,2.77,221.78Z"/><text class="cls-2" transform="translate(25.52 90.39)"><tspan class="cls-3">M</tspan><tspan class="cls-4" x="17.66" y="0">c</tspan><tspan class="cls-5" x="26.77" y="0">D</tspan><tspan x="41.1" y="0">onald</tspan><tspan class="cls-6" x="87.88" y="0">’</tspan><tspan x="91.63" y="0">s</tspan></text><text class="cls-7" transform="translate(25.52 111.42)">p<tspan class="cls-8" x="5.68" y="0">r</tspan><tspan x="9.26" y="0">oduct d</tspan><tspan class="cls-9" x="42.97" y="0">e</tspan><tspan class="cls-10" x="48.18" y="0">v</tspan><tspan x="53.3" y="0">elopme</tspan><tspan class="cls-11" x="86.26" y="0">n</tspan><tspan x="91.83" y="0">t </tspan><tspan x="0" y="12">i</tspan><tspan class="cls-12" x="2.54" y="12">n</tspan><tspan class="cls-13" x="8.11" y="12">t</tspan><tspan x="11.79" y="12">ern</tspan></text><text class="cls-7" transform="translate(25.52 62.22)">2019</text></g></g></svg>