<svg xmlns="http://www.w3.org/2000/svg" viewBox="0 0 151.01 222.33"><defs><style>.cls-1{fill:#3c3e3b;stroke:#000;stroke-miterlimit:10;}.cls-2{font-size:20px;}.cls-17,.cls-2{fill:#43b14e;font-family:Lato-Bold, Lato;font-weight:700;}.cls-3{letter-spacing:-0.01em;}.cls-4{letter-spacing:0em;}.cls-5{letter-spacing:0em;}.cls-6{letter-spacing:-0.01em;}.cls-7{letter-spacing:0em;}.cls-8{letter-spacing:0em;}.cls-9{font-size:25px;}.cls-10{letter-spacing:0em;}.cls-11{font-size:22px;}.cls-12{letter-spacing:-0.01em;}.cls-13{letter-spacing:-0.01em;}.cls-14{letter-spacing:-0.01em;}.cls-15{letter-spacing:0em;}.cls-16{letter-spacing:-0.02em;}.cls-17{font-size:10px;}.cls-18{letter-spacing:-0.01em;}.cls-19{letter-spacing:-0.02em;}</style></defs><g id="Layer_2" data-name="Layer 2"><g id="Layer_1-2" data-name="Layer 1"><path class="cls-1" d="M2.77,221.78l72.74-43,72.73,43a3.16,3.16,0,0,0,2.27-2.86V.5H.5V218.92A3.16,3.16,0,0,0,2.77,221.78Z"/><text class="cls-2" transform="translate(24.64 71.39)"><tspan class="cls-3">A</tspan><tspan class="cls-4" x="13.66" y="0">u</tspan><tspan class="cls-5" x="24.94" y="0">t</tspan><tspan x="32.3" y="0">om</tspan><tspan class="cls-6" x="60.54" y="0">a</tspan><tspan class="cls-7" x="70.55" y="0">t</tspan><tspan class="cls-8" x="77.91" y="0">ed</tspan><tspan class="cls-9"><tspan class="cls-10" x="0" y="30">S</tspan><tspan x="13.67" y="30">chedule</tspan></tspan><tspan class="cls-11"><tspan class="cls-12" x="0" y="56.4">G</tspan><tspan x="15.84" y="56.4">ene</tspan><tspan class="cls-13" x="51.74" y="56.4">r</tspan><tspan class="cls-14" x="59.81" y="56.4">a</tspan><tspan class="cls-15" x="70.82" y="56.4">t</tspan><tspan x="78.91" y="56.4">o</tspan><tspan class="cls-16" x="91.55" y="56.4">r</tspan></tspan></text><text class="cls-17" transform="translate(24.64 147.42)">d<tspan class="cls-18" x="5.67" y="0">e</tspan><tspan class="cls-19" x="10.88" y="0">v</tspan><tspan x="16" y="0">elope</tspan><tspan class="cls-16" x="40.59" y="0">r</tspan></text><text class="cls-17" transform="translate(24.64 43.22)">2020</text></g></g></svg>