<svg xmlns="http://www.w3.org/2000/svg" viewBox="0 0 151.01 222.33"><defs><style>.cls-1,.cls-3{fill:#298fd9;}.cls-1,.cls-2,.cls-3{stroke:#000;stroke-miterlimit:10;}.cls-2{fill:#fedcd0;}.cls-2,.cls-3{stroke-width:0.5px;}</style></defs><g id="Layer_2" data-name="Layer 2"><g id="Layer_1-2" data-name="Layer 1"><path class="cls-1" d="M2.77,221.78l72.74-43,72.73,43a3.16,3.16,0,0,0,2.27-2.86V.5H.5V218.92A3.16,3.16,0,0,0,2.77,221.78Z"/><circle class="cls-2" cx="75.51" cy="102.21" r="46.56"/><path class="cls-3" d="M50.2,121.4a2.56,2.56,0,0,1-.34.26v6.48h9.07V112.68C56.54,116,53.14,118.71,50.2,121.4Z"/><path class="cls-3" d="M71,112.77l-6-6q-1.24,1.2-2.52,2.37v19.2h10V113.75A4.31,4.31,0,0,1,71,112.77Z"/><path class="cls-3" d="M77.66,111.46l8.09-8.77h.41v25.67h-10V112.52A4.47,4.47,0,0,0,77.66,111.46Z"/><path class="cls-3" d="M89.59,99.85v28.29h9.07V90.89C95.65,93.89,92.65,96.89,89.59,99.85Z"/><polygon class="cls-3" points="67.29 97.25 65.92 95.55 44.11 117.4 45.48 119.1 67.29 97.25"/><path class="cls-3" d="M81.11,96.78l-7.63,7.65,1.37,1.7,7.77-7.79C82.1,97.84,81.61,97.31,81.11,96.78Z"/><path class="cls-3" d="M87.49,93.46l9.17-9.18-1.38-1.7L86,91.9C86.48,92.43,87,93,87.49,93.46Z"/><polygon class="cls-3" points="74.5 106.28 76.16 104.87 66.05 95.77 64.38 97.17 74.5 106.28"/><polygon class="cls-3" points="103.08 75.23 90.84 79.07 100.29 87.75 103.08 75.23"/></g></g></svg>