<svg xmlns="http://www.w3.org/2000/svg" xmlns:xlink="http://www.w3.org/1999/xlink" viewBox="0 0 151.01 222.33" xmlns:v="https://vecta.io/nano"><style><![CDATA[.I{stroke-miterlimit:10}.J{stroke:#000}.K{fill:#fedcd0}.L{fill:#e5ff35}]]></style><path d="M2.77 221.78l72.74-43 72.73 43a3.16 3.16 0 0 0 2.27-2.86V.5H.5v218.42a3.16 3.16 0 0 0 2.27 2.86z" fill="#f03639" class="I J"/><use xlink:href="#B" class="K"/><use xlink:href="#B" fill="none" class="I J"/><circle cx="52.12" cy="84.52" r="2.52" class="L"/><circle cx="52.12" cy="84.52" r="2.52" fill="none" class="J"/><circle cx="82.09" cy="84.29" r="2.52" class="L"/><circle cx="82.09" cy="84.29" r="2.52" fill="none" class="J"/><circle cx="68.09" cy="84.29" r="2.52" class="L"/><g class="J"><g fill="none"><circle cx="68.09" cy="84.29" r="2.52"/><path d="M83.44 111.29L43.06 42.77" stroke-width=".75" class="I"/></g><path d="M79.403 107.726l2.806-1.62 2.154 3.733-2.806 1.62z" class="I"/><path d="M84.29 138.29a85.16 85.16 0 0 1-4.87-14.07 17.89 17.89 0 0 1-.23-8.29 8.38 8.38 0 0 1 5.28-6c3.46-1.05 7.11.94 9.84 3.3a65.15 65.15 0 0 1 9.1 10.43l9.36 12.4a2.62 2.62 0 0 1 .62 1.23 2.67 2.67 0 0 1-1.16 2.08c-4.81 4.38-12.19 10.24-18.8 11.43-6.07 1.06-7.19-7.8-9.14-12.51z" class="I K"/><path d="M90.56 150.46l-10.3-36.19m15.12 35.9l-14.41-37.56m18.79 35.45l-18.21-36.6m22.66 34.24l-21.82-34.94m25.2 32.16l-24.45-33.01m28.14 30.05l-26.93-30.12m26.86 24.97l-25.26-25.07m14.05 9.95l-10.9-9.9" fill="none" stroke-width=".25" class="I"/><path d="M40.043 41.347l2.806-1.62 2.154 3.733-2.806 1.62z" class="I"/></g><g class="K"><path d="M71.29,88.11H69.58a.5.5,0,0,0-.5.5.51.51,0,0,0,.5.5h2a.51.51,0,0,0,.5-.5.51.51,0,0,0-.5-.5h-2.3a.5.5,0,0,0,0,1h2.3v-1h-2v1h1.71a.51.51,0,0,0,.5-.5.51.51,0,0,0-.5-.5Z"/><path d="M71.24,88.18H69.32v1h2.56a.5.5,0,0,0,0-1H68.71a.5.5,0,0,0,0,1h3.1a.5.5,0,0,0,0-1H68.59a.5.5,0,0,0,0,1h3.9v-1H68a.5.5,0,0,0,0,1h4a.5.5,0,0,0,0-1H67.44v1h2.21a.5.5,0,0,0,0-1H67.44a.5.5,0,0,0,0,1H72v-1H68a.5.5,0,0,0,0,1h4.51a.5.5,0,0,0,0-1h-3.9a.5.5,0,0,0,0,1h3.22v-1h-3.1v1h3.17v-1H69.32a.5.5,0,0,0,0,1h1.92a.5.5,0,0,0,0-1Z"/><path d="M69.56 88.39h.81c.31 0 .61 0 .92-.06a.5.5 0 0 0 0-1 16.71 16.71 0 0 0-2 .19.49.49 0 0 0-.3.23.5.5 0 0 0 0 .38.53.53 0 0 0 .23.3.59.59 0 0 0 .39 0z"/><path d="M69 88.2a1.37 1.37 0 0 0 .57 0A1.65 1.65 0 0 0 70 88c.24-.1.47-.22.7-.34a.48.48 0 0 0 .23-.29.49.49 0 0 0 0-.39.5.5 0 0 0-.3-.23.57.57 0 0 0-.38 0l-.74.36h.11a1.7 1.7 0 0 1-.32.1h.01a.5.5 0 0 0-.62.35.51.51 0 0 0 .35.61z"/><path d="M69.59 87l-.65.65.71.7 1-.94a.51.51 0 0 0 0-.7.49.49 0 0 0-.36-.15.53.53 0 0 0-.35.15l-1 .94a.51.51 0 0 0 0 .7.49.49 0 0 0 .36.15.51.51 0 0 0 .35-.15l.64-.64a.53.53 0 0 0 .15-.36.47.47 0 0 0-.15-.35.48.48 0 0 0-.7 0z"/><path d="M69 88.11a.79.79 0 0 0 .6-.11l.31-.15.61-.29a.53.53 0 0 0 .23-.3.59.59 0 0 0-.05-.39.49.49 0 0 0-.7-.17l-.52.24-.51.25h.4a.53.53 0 0 0-.39 0 .57.57 0 0 0-.23.3.52.52 0 0 0 .35.62z"/></g><defs ><path id="B" d="M93.1 65.91L87 78.36h-.17L82 62.09a.47.47 0 0 0-.9 0l-4.72 16.27H74l-5.55-14.22a4.55 4.55 0 1 0-2.8 0l-5.54 14.2h-2.44l-4.73-16.17a.47.47 0 0 0-.9 0l-4.59 15.75-6.86-11.71a.46.46 0 0 0-.86.31l2.14 12.58v10.59h50.76V80L94 66.16a.46.46 0 0 0-.9-.25z"/></defs></svg>