<svg xmlns="http://www.w3.org/2000/svg" viewBox="0 0 151.01 222.33"><defs><style>.cls-1{fill:#C4242B;}.cls-1,.cls-2,.cls-3,.cls-4,.cls-7{stroke:#000;}.cls-1,.cls-2,.cls-3,.cls-4,.cls-6,.cls-7{stroke-miterlimit:10;}.cls-2{fill:#150700;}.cls-2,.cls-3,.cls-4,.cls-7{stroke-width:0.5px;}.cls-3,.cls-4{fill:#fff57c;}.cls-4{font-size:15.86px;font-family:Lato-Black, Lato;font-weight:800;}.cls-5{fill:#fff;}.cls-6,.cls-7{fill:none;}.cls-6{stroke:#fff;}</style></defs><g id="Layer_2" data-name="Layer 2"><g id="Layer_1-2" data-name="Layer 1"><path class="cls-1" d="M2.77,221.78l72.74-43,72.73,43a3.16,3.16,0,0,0,2.27-2.86V.5H.5V218.92A3.16,3.16,0,0,0,2.77,221.78Z"/><polygon class="cls-2" points="83.53 83.81 83.53 114.03 137.54 131.14 137.54 66.69 83.53 83.81"/><polygon class="cls-3" points="84.16 85.46 84.16 113.15 133.64 128.82 133.64 69.78 84.16 85.46"/><path class="cls-1" d="M96.93,87.15,88,99.45c-.64.88.17,2.39,1.56,2.79l30.77,8.89c6.73,1.94,11.76.06,7.68-3.44L102.88,86.1C101.4,84.83,98.11,85.53,96.93,87.15Z"/><text class="cls-4" transform="translate(98.82 102.84)">!</text><path class="cls-5" d="M48.41,106l7.22,4.55a2.7,2.7,0,0,0,4.14-2.29V99.12a2.7,2.7,0,0,0-4.14-2.29l-7.22,4.55A2.7,2.7,0,0,0,48.41,106Z"/><path class="cls-3" d="M47.44,105.94l6.89,4a2.7,2.7,0,0,0,4.05-2.34v-8a2.7,2.7,0,0,0-4.05-2.34l-6.89,4A2.69,2.69,0,0,0,47.44,105.94Z"/><rect class="cls-3" x="19.37" y="94.82" width="28.31" height="17.57" rx="5.92"/><circle class="cls-3" cx="24.86" cy="89.73" r="5.09"/><circle class="cls-3" cx="39.53" cy="86.76" r="7.99"/><line class="cls-6" x1="61.46" y1="96.17" x2="64.7" y2="94.02"/><line class="cls-6" x1="62.3" y1="98.37" x2="65.97" y2="97.09"/><line class="cls-6" x1="62.53" y1="108.91" x2="66.3" y2="109.86"/><line class="cls-6" x1="63.01" y1="106.35" x2="66.86" y2="106.86"/><line class="cls-6" x1="63.06" y1="103.67" x2="66.95" y2="103.67"/><line class="cls-6" x1="62.92" y1="101.24" x2="66.76" y2="100.65"/><line class="cls-6" x1="61.56" y1="111.09" x2="65.06" y2="112.79"/><line class="cls-7" x1="104" y1="137.97" x2="104.91" y2="120.31"/><line class="cls-7" x1="98.64" y1="137.69" x2="104.4" y2="134.12"/><line class="cls-7" x1="115.13" y1="144.38" x2="104.46" y2="134.46"/><line class="cls-7" x1="101.76" y1="135.62" x2="104" y2="137.97"/><line class="cls-7" x1="106.75" y1="136.72" x2="104.01" y2="137.92"/></g></g></svg>