<svg xmlns="http://www.w3.org/2000/svg" viewBox="0 0 151.01 222.33"  xmlns:v="https://vecta.io/nano"><style><![CDATA[.D{stroke-miterlimit:10}]]></style><path d="M2.77 221.78l72.74-43 72.73 43a3.16 3.16 0 0 0 2.27-2.86V.5H.5v218.42a3.16 3.16 0 0 0 2.27 2.86z" fill="#922de1" stroke="#000" class="D"/><path d="M117,81.78a.05.05,0,0,0,.05,0,0,0,0,0,0-.1,0,.05.05,0,0,0,0,0Z" fill="#bdceec"/><g fill="none" stroke="#cff4d2" stroke-width=".5"><circle cx="103.4" cy="120.32" r="4.59"/><circle cx="103.4" cy="120.32" r="6.89"/><g class="D"><path d="M100.06,128.88a9.36,9.36,0,0,1-2.46-1.32,5.94,5.94,0,0,1-1.11-1l-.75-.9,0-.06-9.67-11.42,13.61-2.43,3.87-.72a9.19,9.19,0,1,1-3.47,17.84Z"/><path d="M99.21 131.18a11.45 11.45 0 0 1-3.07-1.65 8 8 0 0 1-1.39-1.23l-.94-1.13v-.07L81.7 112.82l17-3 4.83-.89a11.87 11.87 0 0 1 3.42.68 11.49 11.49 0 1 1-7.76 21.62z"/><path d="M98.46 133.35a13.85 13.85 0 0 1-3.68-2 8.85 8.85 0 0 1-1.66-1.48L92 128.54v-.09l-14.54-17.13 20.42-3.65 5.8-1.07a13.57 13.57 0 0 1 4.1.81 13.78 13.78 0 1 1-9.32 25.94z"/></g><circle cx="103.38" cy="120.26" r="2.13"/><circle cx="103.38" cy="120.26" r="3.2"/><circle cx="103.38" cy="120.26" r="1.07"/><circle cx="70.5" cy="82.34" r="4.59"/><circle cx="70.5" cy="82.34" r="6.89"/><g class="D"><path d="M79.58 80.91a9.33 9.33 0 0 1 .1 2.78 6.51 6.51 0 0 1-.29 1.46l-.4 1.1v.06l-5 14.11L62.43 86.9a8.91 8.91 0 0 1-.91-2.63 9.19 9.19 0 0 1 18.06-3.38z"/><path d="M82 80.48a11.69 11.69 0 0 1 .12 3.52 7.83 7.83 0 0 1-.37 1.82l-.5 1.38v.07L75 104.86 63.77 91.72 60.56 88a11.31 11.31 0 0 1-1.14-3.3A11.48 11.48 0 1 1 82 80.48z"/><path d="M84.24 80a13.42 13.42 0 0 1 .15 4.18 9.45 9.45 0 0 1-.39 2.21L83.36 88l-.06.08-7.46 21.16L58.52 89a13.79 13.79 0 1 1 25.72-9z"/></g><circle cx="70.46" cy="82.39" r="2.13"/><circle cx="70.46" cy="82.39" r="3.2"/><circle cx="70.46" cy="82.39" r="1.07"/><circle cx="98.61" cy="92.36" r="4.59"/><circle cx="98.61" cy="92.36" r="6.89"/><g class="D"><path d="M92.52 85.48a9.14 9.14 0 0 0-1.85 2.09 6.11 6.11 0 0 0-.7 1.3L89.58 90l-5.14 14.1 13.62-2.41 3.87-.66a9.09 9.09 0 0 0 2.38-1.46 9.19 9.19 0 0 0-11.79-14.09z"/><path d="M90.93,83.62a11.57,11.57,0,0,0-2.31,2.6,7.7,7.7,0,0,0-.88,1.64l-.49,1.38v.08l-6.41,17.57,17-3,4.84-.83A11.49,11.49,0,1,0,90.93,83.62Z"/><path d="M89.49,81.83A13.68,13.68,0,0,0,86.71,85a8.9,8.9,0,0,0-1,2l-.59,1.66v.1l-7.7,21.08,20.43-3.61,5.81-1a13.54,13.54,0,0,0,3.57-2.18A13.78,13.78,0,0,0,89.49,81.83Z"/></g><circle cx="98.61" cy="92.42" r="2.13"/><circle cx="98.61" cy="92.42" r="3.2"/><circle cx="98.61" cy="92.42" r="1.07"/><circle cx="47.94" cy="102.06" r="4.59"/><circle cx="47.94" cy="102.06" r="6.89"/><g class="D"><path d="M51.2 93.46a9.24 9.24 0 0 1 2.47 1.3 6.25 6.25 0 0 1 1.12 1l.76.9v.05L65.36 108l-13.58 2.58-3.86.76a9.09 9.09 0 0 1-2.74-.52 9.19 9.19 0 0 1 6-17.36z"/><path d="M52 91.16a11.34 11.34 0 0 1 3.09 1.61A7.62 7.62 0 0 1 56.51 94l1 1.12v.07l12.24 14.15-17 3.22-4.83 1A11.49 11.49 0 1 1 52 91.16z"/><path d="M52.74,89a14,14,0,0,1,3.7,1.94,9.71,9.71,0,0,1,1.69,1.46l1.13,1.35.05.08,14.68,17-20.38,3.87-5.79,1.13a13.26,13.26,0,0,1-4.11-.77,13.78,13.78,0,0,1,9-26Z"/></g><circle cx="47.97" cy="102.12" r="2.13"/><circle cx="47.97" cy="102.12" r="3.2"/><circle cx="47.97" cy="102.12" r="1.07"/><circle cx="81" cy="139.45" r="4.59"/><circle cx="81" cy="139.45" r="6.89"/><g class="D"><path d="M71.92 140.89a9.06 9.06 0 0 1-.1-2.79 5.92 5.92 0 0 1 .29-1.45l.4-1.11 5-14.11 11.57 13.52a9.1 9.1 0 0 1 .91 2.63 9.19 9.19 0 1 1-18.06 3.38z"/><path d="M69.5,141.31a11.34,11.34,0,0,1-.12-3.48,7.44,7.44,0,0,1,.36-1.82l.5-1.38.05-.06,6.22-17.64,11.22,13.15,3.21,3.72a11.35,11.35,0,0,1,1.14,3.29,11.49,11.49,0,0,1-22.58,4.22Z"/><path d="M67.25 141.77a14 14 0 0 1-.15-4.18 9.26 9.26 0 0 1 .44-2.18l.6-1.65v-.08l7.47-21.17 13.46 15.78 3.93 4.46a13.79 13.79 0 1 1-25.73 9z"/></g><circle cx="81.03" cy="139.41" r="2.13"/><circle cx="81.03" cy="139.41" r="3.2"/><circle cx="81.03" cy="139.41" r="1.07"/><circle cx="52.74" cy="130.4" r="4.59"/><circle cx="52.74" cy="130.4" r="6.89"/><g class="D"><path d="M59,137.17a9.06,9.06,0,0,0,1.81-2.12,6.07,6.07,0,0,0,.68-1.31l.37-1.12v-.06l4.89-14.14-13.57,2.64-3.87.73a9,9,0,0,0-2.35,1.49,9.19,9.19,0,0,0,12,13.89Z"/><path d="M60.57,139a11.09,11.09,0,0,0,2.26-2.65,7.66,7.66,0,0,0,.86-1.65l.46-1.39v-.08l6.11-17.67-17,3.3-4.83.91a11.74,11.74,0,0,0-2.95,1.87,11.48,11.48,0,0,0,15,17.36Z"/><path d="M62.05 140.77a13.55 13.55 0 0 0 2.71-3.18 9 9 0 0 0 1-2l.56-1.67v-.1l7.34-21.21-20.36 4-5.8 1.1a13.57 13.57 0 0 0-3.5 2.23 13.78 13.78 0 0 0 18 20.83z"/></g><circle cx="52.74" cy="130.34" r="2.13"/><circle cx="52.74" cy="130.34" r="3.2"/><circle cx="52.74" cy="130.34" r="1.07"/><circle cx="113.93" cy="104.02" r="1.77"/><circle cx="113.93" cy="104.02" r="2.66"/><circle cx="113.93" cy="104.02" r=".89"/><circle cx="117.71" cy="97.28" r="1.77"/><circle cx="117.71" cy="97.28" r="2.66"/><circle cx="117.71" cy="97.28" r=".89"/><circle cx="121.75" cy="103.13" r="1.77"/><circle cx="121.75" cy="103.13" r="2.66"/><circle cx="121.75" cy="103.13" r=".89"/><circle cx="118.44" cy="109.72" r="1.77"/><circle cx="118.44" cy="109.72" r="2.66"/><circle cx="118.44" cy="109.72" r=".89"/><circle cx="29.26" cy="119.39" r="1.77"/><circle cx="29.26" cy="119.39" r="2.66"/><circle cx="29.26" cy="119.39" r=".89"/><circle cx="33.03" cy="112.65" r="1.77"/><circle cx="33.03" cy="112.65" r="2.66"/><circle cx="33.03" cy="112.65" r=".89"/><circle cx="37.08" cy="118.5" r="1.77"/><circle cx="37.08" cy="118.5" r="2.66"/><circle cx="37.08" cy="118.5" r=".89"/><circle cx="33.77" cy="125.09" r="1.77"/><circle cx="33.77" cy="125.09" r="2.66"/><circle cx="33.77" cy="125.09" r=".89"/></g></svg>