<svg xmlns="http://www.w3.org/2000/svg" viewBox="0 0 151.01 222.33"><defs><style>.cls-1{fill:#a04624;}.cls-1,.cls-2,.cls-3,.cls-6{stroke:#000;stroke-miterlimit:10;}.cls-2{fill:#fff;}.cls-3{fill:#fffad0;}.cls-4{fill:#ffcf72;}.cls-5{fill:#ffaf26;}.cls-6{fill:none;}</style></defs><g id="Layer_2" data-name="Layer 2"><g id="Layer_1-2" data-name="Layer 1"><path class="cls-1" d="M2.77,221.78l72.74-43,72.73,43a3.16,3.16,0,0,0,2.27-2.86V.5H.5V218.92A3.16,3.16,0,0,0,2.77,221.78Z"/><path class="cls-2" d="M33.48,78.78a13.08,13.08,0,0,1,3.9-3.59,4.5,4.5,0,0,1,5,.34c.63.59,1,1.44,1.83,1.8,1.94.89,3.52-1.73,5.38-2.78A4.08,4.08,0,0,1,55,76.17a5.33,5.33,0,0,0,1.14,2c1.73,1.36,4.36-1.54,6.28-.49,1.31.72,1.17,2.61,1.65,4,.67,1.94,2.7,3.14,3.48,5a4.38,4.38,0,0,1-7.87,3.81,6.87,6.87,0,0,1-12.6,2.87,7,7,0,0,1-5.42,4.23,15,15,0,0,1-7.1-.7,6.46,6.46,0,0,1-2.84-1.48,2.49,2.49,0,0,1-.49-3,3.56,3.56,0,0,1-3.31,2.88,10.34,10.34,0,0,1-4.61-1,7.55,7.55,0,0,1-3.1-1.78,2.6,2.6,0,0,1-.3-3.29C18.87,90.55,17,85,17.3,84c.86-2.49,3.69-2.88,5.75-3.88S33.14,72,33.48,78.78Z"/><path class="cls-2" d="M79.29,105.21c1.75-1.22,4.27-1.92,5.93-.58.62.49,1.1,1.26,1.87,1.4s1.7-.58,2.38-1.21a14.49,14.49,0,0,1,18.19-.7,4.32,4.32,0,0,0,1.77,1,3.48,3.48,0,0,0,2.15-.54,35.4,35.4,0,0,1,5.65-2.81c2-.62,4.43-.52,6,.94,2.07,2,2.16,6,4.91,6.77,1.9.54,4.64-.62,5.48,1.16a3.21,3.21,0,0,1,.08,1.82c-.76,5.11-2.24,11.14-7.11,12.88-3.79,1.35-8.32-.57-11.88,1.31-1.81,1-3.06,2.77-4.87,3.73-3,1.57-6.62.48-9.67-.92a4.05,4.05,0,0,0-2.22-.55,4.76,4.76,0,0,0-2,1.1c-4.75,3.57-12.47,2-15.52-3.06-.6,1.79-3,2.45-4.75,1.7a7.45,7.45,0,0,1-3.57-4.22c-1.62-4,1.17-6,2-9.48C75.06,111.06,75.7,107.74,79.29,105.21Z"/><path class="cls-3" d="M101.77,107a31.75,31.75,0,0,1-25.46-2.86c-14.67-8.34-20.42-25.9-12.85-39.23a25.44,25.44,0,0,1,2-3,31,31,0,1,0,36.31,45Z"/><ellipse class="cls-4" cx="46.93" cy="90.24" rx="1.82" ry="1.54" transform="matrix(0.49, -0.87, 0.87, 0.49, -54.71, 86.48)"/><ellipse class="cls-5" cx="48.86" cy="101.82" rx="1.12" ry="2.42" transform="translate(-54.34 55.95) rotate(-40.4)"/><ellipse class="cls-4" cx="52.95" cy="106.34" rx="2.19" ry="1.96" transform="translate(-65.66 99.85) rotate(-60.4)"/><ellipse class="cls-4" cx="48.87" cy="96.39" rx="2.62" ry="1.31" transform="translate(-50.82 54.66) rotate(-40.4)"/><ellipse class="cls-4" cx="57.05" cy="110.89" rx="2.62" ry="1.31" transform="translate(-67.54 105.72) rotate(-60.4)"/><ellipse class="cls-4" cx="59.58" cy="115.91" rx="1.12" ry="2.42" transform="translate(-70.63 110.46) rotate(-60.4)"/><ellipse class="cls-4" cx="61.89" cy="111.84" rx="1.82" ry="1.54" transform="translate(-65.92 110.41) rotate(-60.4)"/><ellipse class="cls-5" cx="65.78" cy="117.64" rx="1.82" ry="1.54" transform="translate(-69 116.72) rotate(-60.4)"/><ellipse class="cls-5" cx="47.3" cy="84.07" rx="2.04" ry="1.46" transform="translate(-49.16 83.68) rotate(-60.4)"/><ellipse class="cls-4" cx="71.97" cy="119.36" rx="2.42" ry="1.12" transform="matrix(1, -0.01, 0.01, 1, -0.83, 0.51)"/><ellipse class="cls-4" cx="67.88" cy="112.94" rx="1.12" ry="2.42" transform="translate(-62.41 93.25) rotate(-50.4)"/><line class="cls-6" x1="79.59" y1="82.95" x2="79.1" y2="66.96"/><line class="cls-6" x1="79.75" y1="86.49" x2="107.49" y2="99.94"/><circle class="cls-3" cx="79.59" cy="85.47" r="2.52"/><line class="cls-6" x1="75.31" y1="71.55" x2="79.1" y2="66.96"/><line class="cls-6" x1="78.83" y1="67.05" x2="82.66" y2="71.61"/><line class="cls-6" x1="105.31" y1="94.31" x2="107.35" y2="99.9"/><line class="cls-6" x1="107.49" y1="99.94" x2="101.62" y2="100.98"/></g></g></svg>