<svg xmlns="http://www.w3.org/2000/svg" viewBox="0 0 151.01 222.33"  xmlns:v="https://vecta.io/nano"><g stroke="#000" stroke-miterlimit="10"><path d="M2.77 221.78l72.74-43 72.73 43a3.16 3.16 0 0 0 2.27-2.86V.5H.5v218.42a3.16 3.16 0 0 0 2.27 2.86z" fill="#a04624"/><path d="M33.48 78.78a13.08 13.08 0 0 1 3.9-3.59 4.5 4.5 0 0 1 5 .34c.63.59 1 1.44 1.83 1.8 1.94.89 3.52-1.73 5.38-2.78A4.08 4.08 0 0 1 55 76.17a5.33 5.33 0 0 0 1.14 2c1.73 1.36 4.36-1.54 6.28-.49 1.31.72 1.17 2.61 1.65 4 .67 1.94 2.7 3.14 3.48 5a4.38 4.38 0 0 1-7.87 3.81 6.87 6.87 0 0 1-12.6 2.87 7 7 0 0 1-5.42 4.23 15 15 0 0 1-7.1-.7 6.46 6.46 0 0 1-2.84-1.48 2.49 2.49 0 0 1-.49-3 3.56 3.56 0 0 1-3.31 2.88 10.34 10.34 0 0 1-4.61-1 7.55 7.55 0 0 1-3.1-1.78 2.6 2.6 0 0 1-.3-3.29C18.87 90.55 17 85 17.3 84c.86-2.49 3.69-2.88 5.75-3.88S33.14 72 33.48 78.78zm45.81 26.43c1.75-1.22 4.27-1.92 5.93-.58.62.49 1.1 1.26 1.87 1.4s1.7-.58 2.38-1.21a14.49 14.49 0 0 1 18.19-.7 4.32 4.32 0 0 0 1.77 1 3.48 3.48 0 0 0 2.15-.54 35.4 35.4 0 0 1 5.65-2.81c2-.62 4.43-.52 6 .94 2.07 2 2.16 6 4.91 6.77 1.9.54 4.64-.62 5.48 1.16a3.21 3.21 0 0 1 .08 1.82c-.76 5.11-2.24 11.14-7.11 12.88-3.79 1.35-8.32-.57-11.88 1.31-1.81 1-3.06 2.77-4.87 3.73-3 1.57-6.62.48-9.67-.92a4.05 4.05 0 0 0-2.22-.55 4.76 4.76 0 0 0-2 1.1c-4.75 3.57-12.47 2-15.52-3.06-.6 1.79-3 2.45-4.75 1.7a7.45 7.45 0 0 1-3.57-4.22c-1.62-4 1.17-6 2-9.48.95-3.89 1.59-7.21 5.18-9.74z" fill="#fff"/><path d="M101.77,107a31.75,31.75,0,0,1-25.46-2.86c-14.67-8.34-20.42-25.9-12.85-39.23a25.44,25.44,0,0,1,2-3,31,31,0,1,0,36.31,45Z" fill="#fffad0"/></g><ellipse cx="46.93" cy="90.24" rx="1.82" ry="1.54" transform="matrix(.49 -.87 .87 .49 -54.71 86.48)" fill="#ffcf72"/><ellipse cx="48.86" cy="101.82" rx="1.12" ry="2.42" transform="matrix(.761538 -.64812 .64812 .761538 -54.34 55.95)" fill="#ffaf26"/><g fill="#ffcf72"><ellipse cx="52.95" cy="106.34" rx="2.19" ry="1.96" transform="matrix(.493942 -.869495 .869495 .493942 -65.66 99.85)"/><ellipse cx="48.87" cy="96.39" rx="2.62" ry="1.31" transform="matrix(.761538 -.64812 .64812 .761538 -50.82 54.66)"/><ellipse cx="57.05" cy="110.89" rx="2.62" ry="1.31" transform="matrix(.493942 -.869495 .869495 .493942 -67.54 105.72)"/><ellipse cx="59.58" cy="115.91" rx="1.12" ry="2.42" transform="matrix(.493942 -.869495 .869495 .493942 -70.63 110.46)"/><ellipse cx="61.89" cy="111.84" rx="1.82" ry="1.54" transform="matrix(.493942 -.869495 .869495 .493942 -65.92 110.41)"/></g><g fill="#ffaf26"><ellipse cx="65.78" cy="117.64" rx="1.82" ry="1.54" transform="matrix(.493942 -.869495 .869495 .493942 -69 116.72)"/><ellipse cx="47.3" cy="84.07" rx="2.04" ry="1.46" transform="matrix(.493942 -.869495 .869495 .493942 -49.16 83.68)"/></g><g fill="#ffcf72"><ellipse cx="71.97" cy="119.36" rx="2.42" ry="1.12" transform="matrix(1 -.01 .01 1 -.83 .51)"/><ellipse cx="67.88" cy="112.94" rx="1.12" ry="2.42" transform="matrix(.637424 -.770513 .770513 .637424 -62.41 93.25)"/></g><g stroke="#000"><path d="M79.59 82.95l-.49-15.99m.65 19.53l27.74 13.45" stroke-miterlimit="10" fill="none"/><circle cx="79.59" cy="85.47" r="2.52" fill="#fffad0"/><g stroke-miterlimit="10" fill="none"><path d="M75.31 71.55l3.79-4.59"/><path d="M78.83 67.05l3.83 4.56m22.65 22.7l2.04 5.59m.14.04l-5.87 1.04"/></g></g></svg>