<svg xmlns="http://www.w3.org/2000/svg" viewBox="0 0 151.01 222.33"  xmlns:v="https://vecta.io/nano"><style><![CDATA[.H{stroke-width:.5}.I{fill:#fff57c}.J{stroke:#000}.K{stroke-miterlimit:10}]]></style><g class="J K"><path d="M2.77 221.78l72.74-43 72.73 43a3.16 3.16 0 0 0 2.27-2.86V.5H.5v218.42a3.16 3.16 0 0 0 2.27 2.86z" fill="#c4242b"/><g class="H"><path d="M83.53 83.81v30.22l54.01 17.11V66.69L83.53 83.81z" fill="#150700"/><path d="M84.16 85.46v27.69l49.48 15.67V69.78L84.16 85.46z" class="I"/></g><path d="M96.93 87.15L88 99.45c-.64.88.17 2.39 1.56 2.79l30.77 8.89c6.73 1.94 11.76.06 7.68-3.44L102.88 86.1c-1.48-1.27-4.77-.57-5.95 1.05z" fill="#c4242b"/></g><text transform="translate(98.82 102.84)" font-size="15.86" font-family="Lato-Black,Lato" font-weight="800" class="H I J K">!</text><path d="M48.41 106l7.22 4.55a2.7 2.7 0 0 0 4.14-2.29v-9.14a2.7 2.7 0 0 0-4.14-2.29l-7.22 4.55a2.7 2.7 0 0 0 0 4.62z" fill="#fff"/><g class="J H I"><g class="K"><path d="M47.44 105.94l6.89 4a2.7 2.7 0 0 0 4.05-2.34v-8a2.7 2.7 0 0 0-4.05-2.34l-6.89 4a2.69 2.69 0 0 0 0 4.68z"/><rect x="19.37" y="94.82" width="28.31" height="17.57" rx="5.92"/></g><circle cx="24.86" cy="89.73" r="5.09"/><circle cx="39.53" cy="86.76" r="7.99"/></g><g fill="none" class="K"><path d="M61.46 96.17l3.24-2.15m-2.4 4.35l3.67-1.28m-3.44 11.82l3.77.95m-3.29-3.51l3.85.51m-3.8-3.19h3.89m-4.03-2.43l3.84-.59m-5.2 10.44l3.5 1.7" stroke="#fff"/><g class="H J"><path d="M104 137.97l.91-17.66"/><path d="M98.64 137.69l5.76-3.57m10.73 10.26l-10.67-9.92"/><path d="M101.76 135.62l2.24 2.35m2.75-1.25l-2.74 1.2"/></g></g></svg>