<svg xmlns="http://www.w3.org/2000/svg" viewBox="0 0 151.01 222.33"  stroke="#000" stroke-miterlimit="10" xmlns:v="https://vecta.io/nano"><path d="M2.77 221.78l72.74-43 72.73 43a3.16 3.16 0 0 0 2.27-2.86V.5H.5v218.42a3.16 3.16 0 0 0 2.27 2.86z" fill="#3c3e3b"/><g stroke-width=".5"><path d="M113.58 104a.34.34 0 0 0-.07-.24.46.46 0 0 0-.23-.12 22.47 22.47 0 0 0-3.75-.56 20.7 20.7 0 0 0-2.16-7.47 16.84 16.84 0 0 0 2.72-2.19.74.74 0 0 0 .19-.27.67.67 0 0 0-.12-.46 20.3 20.3 0 0 0-6.22-7.06.33.33 0 0 0-.48 0 20.34 20.34 0 0 0-2.75 2.37 20.65 20.65 0 0 0-10.64-3.69 17.48 17.48 0 0 0-.37-2.79.62.62 0 0 0-.12-.3.65.65 0 0 0-.45-.15 20 20 0 0 0-9.3 1.46.43.43 0 0 0-.21.14.36.36 0 0 0 0 .25 20.26 20.26 0 0 0 .42 3.3A20.9 20.9 0 0 0 74.42 90 17 17 0 0 0 72 88.34a.7.7 0 0 0-.33-.12.73.73 0 0 0-.45.25 21.54 21.54 0 0 0-5.48 8.44.43.43 0 0 0 0 .27.42.42 0 0 0 .18.22 21.23 21.23 0 0 0 2.91 2 21.19 21.19 0 0 0-.61 8.26 16.42 16.42 0 0 0-3.22 1.08.66.66 0 0 0-.29.2.71.71 0 0 0-.06.5 21.26 21.26 0 0 0 3.58 9.26.5.5 0 0 0 .19.19.45.45 0 0 0 .28 0 21.06 21.06 0 0 0 3.49-1.25 20.65 20.65 0 0 0 5 4.74 16.77 16.77 0 0 0-1.19 2.87.64.64 0 0 0 0 .33.68.68 0 0 0 .32.37 21.21 21.21 0 0 0 9.21 3.4.39.39 0 0 0 .26 0 .42.42 0 0 0 .18-.21 20.88 20.88 0 0 0 1.39-3.31h1.47a20.68 20.68 0 0 0 6.89-1.17 16.72 16.72 0 0 0 1.74 2.82.61.61 0 0 0 .25.23.72.72 0 0 0 .5 0 21.33 21.33 0 0 0 8.34-5.48.4.4 0 0 0 .14-.23.38.38 0 0 0-.07-.27 21.72 21.72 0 0 0-2-3.13 21.06 21.06 0 0 0 3.31-5.31 15.9 15.9 0 0 0 3.44.61.56.56 0 0 0 .34 0 .69.69 0 0 0 .29-.39 20.39 20.39 0 0 0 1.58-9.51zM89 118.72A13.68 13.68 0 1 1 102.62 105 13.68 13.68 0 0 1 89 118.72z" fill="#43b14e"/><rect x="43.6" y="61.88" width="49.66" height="48.5" rx="12" fill="#fff"/><path d="M48.61 82.38h7.79v6.99h-7.79zm11.25 0h7.79v6.99h-7.79zm10.6 0h7.79v6.99h-7.79zm10.41 0h7.79v6.99h-7.79zm-32.1 11.44h7.79v6.99h-7.79zm11.25 0h7.79v6.99h-7.79zm10.6 0h7.79v6.99h-7.79z" fill="#e1e1e1"/><path d="M81.03 93.82h7.79v6.99h-7.79zM53.41 61.64h30.17a10 10 0 0 1 10 10v5.26a0 0 0 0 1 0 0H43.41a0 0 0 0 1 0 0v-5.26a10 10 0 0 1 10-10z" fill="#43b14e"/><g fill="#e1e1e1"><rect x="54.24" y="58.1" width="6.39" height="10.58" rx="3.19"/><rect x="77" y="58.1" width="6.39" height="10.58" rx="3.19"/></g></g></svg>