<svg xmlns="http://www.w3.org/2000/svg" xmlns:xlink="http://www.w3.org/1999/xlink" viewBox="0 0 151.01 222.33"><defs><style>.cls-1{fill:#f26527;}.cls-1,.cls-2{stroke:#000;stroke-miterlimit:10;}.cls-2{fill:#ffe296;stroke-width:0.25px;}.cls-3{fill:#ee4e14;}.cls-4{fill:#b8cb1b;}.cls-5{fill:url(#linear-gradient);}.cls-6{fill:url(#linear-gradient-2);}.cls-7{fill:#1a1818;}</style><linearGradient id="linear-gradient" x1="50.44" y1="-636.59" x2="51.52" y2="-636.1" gradientTransform="matrix(40.5, 0, 0, -67.5, -1990.41, -42881.99)" gradientUnits="userSpaceOnUse"><stop offset="0" stop-color="#e74579"/><stop offset="0.24" stop-color="#ef5731"/><stop offset="0.76" stop-color="#f98313"/><stop offset="1" stop-color="#ffc620"/></linearGradient><linearGradient id="linear-gradient-2" x1="51.28" y1="-642.16" x2="50.52" y2="-641.84" gradientTransform="matrix(39.37, 0, 0, -51.26, -1931.85, -32831.39)" xlink:href="#linear-gradient"/></defs><g id="Layer_2" data-name="Layer 2"><g id="Layer_1-2" data-name="Layer 1"><path class="cls-1" d="M2.77,221.78l72.74-43,72.73,43a3.16,3.16,0,0,0,2.27-2.86V.5H.5V218.92A3.16,3.16,0,0,0,2.77,221.78Z"/><circle class="cls-2" cx="75.51" cy="91.14" r="46.92"/><path class="cls-3" d="M84.51,92.55h1.23v.73H84.36a.58.58,0,0,0-.57.28,1,1,0,0,0-.09.48v1.31H83V92.62h.69v.48a1.49,1.49,0,0,1,.28-.38.9.9,0,0,1,.52-.17Z"/><path class="cls-3" d="M84.7,92.64v-.76h.71V94.6a.34.34,0,0,0,0,.2.46.46,0,0,0,.26,0h.14v.53l-.34,0a1,1,0,0,1-.69-.18.58.58,0,0,1-.12-.38V92.64Z"/><path class="cls-3" d="M84.48,96.79a3,3,0,1,1,3-3A3,3,0,0,1,84.48,96.79Zm0-5.35a2.36,2.36,0,1,0,2.36,2.35h0A2.37,2.37,0,0,0,84.48,91.44Z"/><path class="cls-4" d="M89.64,53.5c-.47,5.61-5.52,6.72-12.75,9.84-3.43,1.47-6.78,3.87-8,8-1.33,4.75.18,7.69,2.66,12.24,1.07,2,2.06,5.12.35,8-.94-6-5.39-7.3-9.34-7.32s-8.45.95-10.24-3c.93,6.21,3.75,10.34,7.42,12.4A17.26,17.26,0,0,0,74.74,95c4.24-1.62,8.8-6.23,11.87-12.65C90.09,75.06,91.68,63.41,89.64,53.5Z"/><path class="cls-5" d="M74.5,95.1c5-1.91,8.42-8.69,7.42-20-1-11.61-5.94-18.17-8.43-23,1.24,3.85-1.29,6.14-5.48,10.56A13.7,13.7,0,0,0,64.1,74.71c.61,3.92,3.93,6.9,6.5,10A7.52,7.52,0,0,1,72,91.61c.17-5.64-3.34-7.81-6.87-8.74-3.81-1-8.08-.49-9.25-5.75-.36,8.92,3.42,14.34,8,16.93A12.3,12.3,0,0,0,74.5,95.1Z"/><path class="cls-6" d="M63.82,94.05a12.3,12.3,0,0,0,10.68,1c5-1.91,8.42-8.69,7.42-20a39,39,0,0,0-3.22-12.5l-2.19,1a12.84,12.84,0,0,0-7.57,8.31c-1.33,4.75.18,7.69,2.66,12.24,1.08,2,2.05,4.58.34,7.5-1-6-5.38-6.75-9.33-6.78a33.36,33.36,0,0,1-6.06-.59A15.55,15.55,0,0,0,63.82,94.05Z"/><path d="M52.21,102q-1.2,0-1.79,8.74v1.79c0,1.86.59,3,1.79,3.38l.59-.2-.4-4.37.8-8.35v-.2l-.8-.79Z"/><path class="cls-7" d="M60.85,101.45a2.21,2.21,0,0,1,1.79,1.19v.4l-.6.6-.2-.2c-2,.16-3,.56-3.18,1.19a24,24,0,0,0,5.57,5.17A4.64,4.64,0,0,1,65,112v.59c0,1.73-1.32,2.85-4,3.38h-.6c-1.59-.33-2.38-1.13-2.38-2.38v-.4l.59-.6h.2c.13.93.86,1.39,2.19,1.39,1.32-.36,2-1,2-2q0-.7-4.77-4.38c-1.2-1.42-1.79-2.48-1.79-3.18C56.48,103,57.93,102.05,60.85,101.45Z"/><path class="cls-7" d="M73.12,101.55h-2A8.25,8.25,0,0,0,65,103.94v.59l.8.6,3-1h.4l.2,5.37v4.17l-.2.2c-1.89,0-3-.46-3.38-1.39l.19-1h-.19a1.32,1.32,0,0,0-.8,1.39v.4c0,1.45,1.06,2.32,3.18,2.58h1.19l-.19,3.38.19,3.38q0,6.75,2.19,7.55h.53a13,13,0,0,1-.6-4.15s0-.09,0-.14a5.07,5.07,0,0,1,0-1.23c0-.7-.08-1.51-.11-2.43v-6.56l.6-.59q6.75-3.33,6.76-7.76v-1.19Q78.69,102.15,73.12,101.55Zm-1.59,11.53a57.47,57.47,0,0,0-.59-9.54h1.19q4.58,0,4.57,3.18,0,3.42-5.17,6.36Z"/><path d="M81.92,102c-.8,0-1.39,2.91-1.79,8.74v1.79c0,1.86.6,3,1.79,3.38l.59-.2-.39-4.37.79-8.35v-.2l-.79-.79Z"/><path class="cls-3" d="M94,101.55c1.72,0,2.55.56,2.49,1.69s-1,1.22-2.89.3q-5.26,1.72-5.26,4.82l-.2,5.46v.2l.4.59v1.6l-.8.79c-1.19,0-1.79-1.39-1.79-4.17l.4-4.27c-.4,0-.6-.13-.6-.4v-.4a28,28,0,0,0,1.59-6.36l.2-.2H88c.4,0,.6.93.6,2.78A8.39,8.39,0,0,1,94,101.55Z"/><path class="cls-3" d="M99.46,87.93h.59c.66,0,1,1.73,1,5.17v1.39h.2l5.56-1.19H109q2.39,0,4.37,3v.4h-.2a5.87,5.87,0,0,0-3.78-1.59c-5.82.6-8.74,1.46-8.74,2.58q-1.79,14.11-1.79,18.49V117h.2v-.59h.4v1.39c0,.93-.4,1.39-1.2,1.39a2,2,0,0,1-1.39-2v-1.79a151,151,0,0,1,1.79-17.68h-.2l-5.36,1H91.9l-.79-.79q0-.85,7.75-2.59V91.11l-.19-1.78C98.9,88.4,99.16,87.93,99.46,87.93Z"/></g></g></svg>