<svg xmlns="http://www.w3.org/2000/svg" viewBox="0 0 151.01 222.33">
<defs>
    <style type="text/css">@import url('https://fonts.googleapis.com/css?family=Lato');</style>
</defs>
<defs><style>.cls-1{fill:#29456c;stroke:#000;stroke-miterlimit:10;}.cls-2{font-size:17px;}.cls-11,.cls-2{fill:#fe9b71;font-family:Lato-Bold, Lato;font-weight:700;}.cls-3{letter-spacing:0em;}.cls-4{letter-spacing:0em;}.cls-5{letter-spacing:0em;}.cls-6{letter-spacing:-0.03em;}.cls-7{letter-spacing:-0.01em;}.cls-8{font-size:18.5px;}.cls-9{letter-spacing:-0.01em;}.cls-10{letter-spacing:0em;}.cls-11{font-size:10px;}.cls-12{letter-spacing:-0.01em;}.cls-13{letter-spacing:-0.01em;}.cls-14{letter-spacing:0em;}.cls-15{letter-spacing:-0.03em;}.cls-16{letter-spacing:-0.01em;}</style></defs><g id="Layer_2" data-name="Layer 2"><g id="Layer_1-2" data-name="Layer 1"><path class="cls-1" d="M2.77,221.78l72.74-43,72.73,43a3.16,3.16,0,0,0,2.27-2.86V.5H.5V218.92A3.16,3.16,0,0,0,2.77,221.78Z"/><text class="cls-2" transform="translate(24.64 91.39)"><tspan class="cls-3">F</tspan><tspan class="cls-4" x="9.61" y="0">i</tspan><tspan class="cls-5" x="13.92" y="0">r</tspan><tspan x="20.24" y="0">st </tspan><tspan class="cls-6" x="38.17" y="0">R</tspan><tspan x="48.53" y="0">ob</tspan><tspan class="cls-7" x="67.94" y="0">o</tspan><tspan x="77.54" y="0">tics</tspan><tspan class="cls-8"><tspan class="cls-9" x="0" y="22.2">C</tspan><tspan x="12.04" y="22.2">omp</tspan><tspan class="cls-10" x="48.67" y="22.2">e</tspan><tspan x="58.46" y="22.2">tition</tspan></tspan></text><text class="cls-11" transform="translate(24.64 132.42)">mechanical engineer<tspan x="0" y="14.4">s</tspan><tspan class="cls-12" x="4.39" y="14.4">a</tspan><tspan class="cls-13" x="9.38" y="14.4">f</tspan><tspan class="cls-14" x="12.83" y="14.4">e</tspan><tspan x="18.12" y="14.4">t</tspan><tspan class="cls-15" x="21.84" y="14.4">y</tspan><tspan x="26.87" y="14.4" xml:space="preserve"> ca</tspan><tspan class="cls-16" x="39.19" y="14.4">p</tspan><tspan x="44.8" y="14.4">tain</tspan></text><text class="cls-11" transform="translate(24.64 63.22)">2017 - 2018</text></g></g></svg>